<?xml version="1.0" encoding="utf-8"?>
<!-- Generator: Adobe Illustrator 26.0.3, SVG Export Plug-In . SVG Version: 6.00 Build 0)  -->
<svg version="1.0" id="katman_1" xmlns="http://www.w3.org/2000/svg" xmlns:xlink="http://www.w3.org/1999/xlink" x="0px" y="0px"
	 viewBox="0 0 600 450" style="enable-background:new 0 0 600 450;" xml:space="preserve">
<path d="M163.7,249.5h-13.3l-15.3-43.3l-8.6,23.7h13.2l3.6,10.3h-20.1l-3.5,9.3h-13.3l21.2-55.1h14.7L163.7,249.5z M400.9,249.5
	v-10.3h-23.3v-44.7h-11.8v55.1L400.9,249.5z M468.9,249.5v-10.3h-23.3v-44.7h-11.8v55.1L468.9,249.5z M300.4,204.3
	c-9.8,0-17.7,7.9-17.7,17.7s7.9,17.7,17.7,17.7c9.8,0,17.7-7.9,17.7-17.7C318.1,212.2,310.2,204.3,300.4,204.3 M300.4,193.5
	c15.7,0,28.5,12.7,28.5,28.5c0,15.7-12.7,28.5-28.5,28.5s-28.5-12.7-28.5-28.5c0,0,0,0,0,0C271.9,206.3,284.7,193.5,300.4,193.5
	L300.4,193.5z M523.2,204.3c-9.8,0-17.7,7.9-17.7,17.7s7.9,17.7,17.7,17.7c9.8,0,17.7-7.9,17.7-17.7c0,0,0,0,0,0
	C540.9,212.2,533,204.3,523.2,204.3 M523.2,193.5c15.7,0,28.5,12.8,28.5,28.5s-12.8,28.5-28.5,28.5c-15.7,0-28.5-12.8-28.5-28.5l0,0
	C494.7,206.3,507.5,193.5,523.2,193.5z M241.5,212.5c0,9.8-7.9,18.1-17.7,18.1h-13.9v19h-11.7v-55.1h25.7
	C233.6,194.4,241.5,202.7,241.5,212.5L241.5,212.5z M230.7,212.5c0-3.8-3.1-7.3-6.9-7.3h-13.9v14.5h14
	C227.6,219.7,230.7,216.3,230.7,212.5L230.7,212.5z M188,266.2c-1,0-1.9,0.5-2.5,1.3c0,0-2.6,3-4.1,4.4
	c-25.6,25.7-67.3,25.7-92.9,0.1s-25.7-67.3-0.1-92.9c23.8-23.8,61.7-25.8,87.9-4.6c-1.3,3.9,0.7,8.1,4.6,9.4
	c3.9,1.3,8.1-0.7,9.4-4.6c1.3-3.9-0.7-8.1-4.6-9.4c-1.7-0.6-3.6-0.5-5.3,0.2c-30.6-25.1-75.8-20.6-101,10s-20.6,75.8,10,101
	c30.5,25,75.4,20.7,100.6-9.6c1.2-1.2,1.2-3.1,0-4.3C189.6,266.5,188.8,266.2,188,266.2L188,266.2z"/>
</svg>
