<!DOCTYPE svg PUBLIC "-//W3C//DTD SVG 1.1//EN" "http://www.w3.org/Graphics/SVG/1.1/DTD/svg11.dtd">
<!-- Uploaded to: SVG Repo, www.svgrepo.com, Transformed by: SVG Repo Mixer Tools -->
<svg fill="#ffffff" height="64px" width="64px" version="1.1" id="Layer_1" xmlns="http://www.w3.org/2000/svg" xmlns:xlink="http://www.w3.org/1999/xlink" viewBox="-147.46 -147.46 786.44 786.44" xml:space="preserve" stroke="#ffffff">
<g id="SVGRepo_bgCarrier" stroke-width="0" transform="translate(0,0), scale(1)">
<rect x="-147.46" y="-147.46" width="786.44" height="786.44" rx="393.22" fill="#000000" strokewidth="0"/>
</g>
<g id="SVGRepo_tracerCarrier" stroke-linecap="round" stroke-linejoin="round" stroke="#CCCCCC" stroke-width="0.9830399999999999"/>
<g id="SVGRepo_iconCarrier"> <g> <g> <path d="M344.995,123.16h-91.036v114.401h106.833C360.121,196.302,354.427,157.255,344.995,123.16z"/> </g> </g> <g> <g> <path d="M151.466,106.762h86.094V0.52C202.37,6.113,170.988,47.248,151.466,106.762z"/> </g> </g> <g> <g> <path d="M146.525,123.16c-9.432,34.095-15.127,73.142-15.797,114.401h106.833V123.16H146.525z"/> </g> </g> <g> <g> <path d="M253.959,0.52v106.242h86.094C320.532,47.248,289.151,6.113,253.959,0.52z"/> </g> </g> <g> <g> <path d="M114.329,253.959H0c1.371,41.553,13.086,80.511,32.666,114.409h96.343C120.145,334.208,114.94,295.441,114.329,253.959z"/> </g> </g> <g> <g> <path d="M299.86,5.861c24.2,21.254,44.352,56.478,58.022,100.901h90.663C413.979,56.49,361.229,19.695,299.86,5.861z"/> </g> </g> <g> <g> <path d="M32.661,123.161v-0.001C13.084,157.056,1.371,196.011,0,237.562h114.329c0.611-41.479,5.815-80.243,14.678-114.401H32.661 z"/> </g> </g> <g> <g> <path d="M377.191,253.959c-0.611,41.482-5.816,80.249-14.68,114.409h96.343c19.581-33.898,31.295-72.856,32.666-114.409H377.191z"/> </g> </g> <g> <g> <path d="M130.728,253.959c0.67,41.262,6.366,80.312,15.799,114.409h91.033V253.959H130.728z"/> </g> </g> <g> <g> <path d="M133.64,384.766H42.98c34.568,50.269,87.315,87.061,148.68,100.894C167.462,464.407,147.31,429.186,133.64,384.766z"/> </g> </g> <g> <g> <path d="M357.88,384.766c-13.67,44.42-33.821,79.642-58.019,100.894c61.366-13.832,114.113-50.625,148.68-100.894H357.88z"/> </g> </g> <g> <g> <path d="M42.975,106.762h90.663c13.67-44.423,33.821-79.647,58.022-100.901C130.291,19.695,77.542,56.49,42.975,106.762z"/> </g> </g> <g> <g> <path d="M253.959,384.766V491c35.191-5.593,66.571-46.724,86.092-106.234H253.959z"/> </g> </g> <g> <g> <path d="M151.469,384.766c19.522,59.51,50.902,100.642,86.092,106.234V384.766H151.469z"/> </g> </g> <g> <g> <path d="M253.959,253.959v114.409h91.034c9.433-34.097,15.128-73.147,15.799-114.409H253.959z"/> </g> </g> <g> <g> <path d="M458.858,123.16h-96.346c8.863,34.158,14.067,72.922,14.678,114.401h114.33 C490.149,196.011,478.436,157.056,458.858,123.16z"/> </g> </g> </g>
</svg>