<svg version="1.1" id="Layer_1" xmlns="http://www.w3.org/2000/svg" xmlns:xlink="http://www.w3.org/1999/xlink" x="0px" y="0px"
	 width="100%" viewBox="0 0 300 298" enable-background="new 0 0 300 298" xml:space="preserve">
<path fill="#00AEE6" opacity="1.000000" stroke="none" 
	d="
M136.706711,1.217916 
	C145.020905,1.000000 153.041809,1.000000 161.531357,1.000000 
	C163.320129,1.968536 164.839050,1.291148 166.615967,1.558796 
	C179.019592,1.918761 187.861572,9.124312 197.022797,15.599459 
	C198.378830,16.557909 199.638779,17.617090 201.571869,18.297855 
	C205.105270,21.351158 208.181931,24.397030 211.191467,27.503426 
	C231.365555,48.326771 252.719070,67.947174 273.279236,88.377701 
	C278.014465,93.083046 281.926392,98.515472 287.103516,103.268509 
	C288.076508,104.957642 288.664764,106.486549 290.323547,107.682922 
	C290.753082,108.069420 290.902374,108.247986 291.203552,108.740036 
	C292.673187,113.514053 295.898651,117.032738 297.561981,121.701897 
	C297.951324,122.655769 298.344086,123.216469 298.849884,124.105164 
	C299.952393,127.057877 299.812714,129.890518 300.463684,132.924652 
	C300.409515,134.349930 299.743500,135.444733 300.769531,136.757019 
	C301.000000,145.354233 301.000000,153.708466 301.000000,162.531342 
	C300.265442,165.015991 300.012268,167.110596 299.954651,169.598755 
	C298.028992,181.388565 292.275085,191.049332 284.469116,199.078690 
	C264.387817,219.734711 243.923477,240.023468 223.113312,260.468933 
	C222.525040,261.072540 222.163696,261.390442 221.483994,261.889435 
	C214.225937,268.059357 208.044220,274.826721 201.518005,281.238159 
	C193.278244,289.332916 183.855865,295.278687 172.106750,297.884399 
	C169.016113,297.951660 166.344284,298.709045 163.302032,298.780640 
	C155.312424,299.000000 147.624832,299.000000 139.468628,299.000000 
	C137.356842,297.895966 135.415176,298.369751 133.696625,298.318512 
	C122.297272,297.978668 114.252617,290.676697 105.407440,285.030426 
	C104.715790,284.588928 104.118057,284.002106 102.969757,283.625061 
	C100.563454,282.942627 99.443069,281.179932 98.062553,279.798950 
	C87.628883,269.361572 77.218864,258.900665 66.410378,248.372223 
	C65.783035,247.932419 65.439186,247.670456 64.890373,247.168808 
	C64.390549,246.667542 64.139595,246.359573 63.708374,245.837921 
	C63.238445,245.385590 62.982628,245.119049 62.526642,244.664734 
	C62.069572,244.207703 61.788849,243.966751 61.243904,243.582092 
	C60.693565,243.144211 60.399925,242.860229 59.878727,242.344803 
	C45.418781,227.874252 30.474249,214.333786 17.320236,199.035339 
	C16.664627,198.272858 15.907001,197.625214 14.926264,196.693512 
	C13.945624,194.969467 13.277050,193.456650 11.578327,192.255005 
	C11.150362,191.838181 11.006386,191.643661 10.715193,191.116241 
	C9.263800,187.717514 7.817143,184.705658 5.733424,182.101593 
	C3.085538,178.792496 2.587063,174.851364 2.016842,170.532501 
	C1.834115,168.291336 2.402287,166.341919 1.237249,164.266968 
	C1.000000,155.645767 1.000000,147.291534 1.000000,138.468658 
	C2.412376,136.715820 1.874004,135.004013 2.000812,133.082565 
	C2.271448,121.253639 8.058661,112.072556 14.819146,103.570610 
	C24.891857,90.903244 37.190235,80.305016 48.481037,68.769554 
	C58.267208,58.771332 67.812668,48.470318 78.277718,39.220123 
	C88.138046,30.504446 96.528557,20.271971 107.024239,12.256223 
	C115.734497,5.604028 125.271576,1.389846 136.706711,1.217916 
z"/>
<path fill="#47704C" opacity="1.000000" stroke="none" 
	d="
M171.751343,297.221130 
	C179.005890,293.200806 186.631989,290.665039 192.979050,285.588623 
	C202.581421,277.908600 210.437531,268.450439 219.722916,259.990417 
	C220.184509,259.722229 220.342346,259.611023 220.666779,259.262970 
	C226.459305,254.915924 230.823273,249.480316 235.749268,244.647247 
	C250.856674,229.824890 265.744019,214.777985 280.694916,199.796432 
	C289.010284,191.464096 294.408264,181.368286 298.595215,170.170288 
	C299.310486,169.599884 299.797943,169.465729 300.673553,169.777847 
	C301.000000,212.354233 301.000000,254.708450 301.000000,297.531342 
	C300.808258,298.251221 300.595825,298.483521 300.181335,298.848450 
	C257.645782,299.000000 215.291550,299.000000 172.468658,299.000000 
	C171.619720,298.591278 171.467865,298.110443 171.751343,297.221130 
z"/>
<path fill="#47704C" opacity="1.000000" stroke="none" 
	d="
M136.531342,1.000000 
	C127.711304,4.063635 118.266655,6.729276 110.314644,12.861838 
	C107.316681,15.173859 104.239403,17.339087 101.476517,19.972559 
	C74.749718,45.447571 48.777454,71.685432 22.717218,97.832840 
	C13.120829,107.461334 6.608369,118.982178 2.978667,132.499237 
	C2.622618,133.326355 2.179876,133.510086 1.315051,133.217957 
	C1.000000,90.236679 1.043025,47.473232 0.913197,4.710310 
	C0.903471,1.506430 1.740952,0.918718 4.777876,0.926202 
	C48.539272,1.034055 92.301018,1.000000 136.531342,1.000000 
z"/>
<path fill="#47704C" opacity="1.000000" stroke="none" 
	d="
M286.166931,105.213821 
	C274.386810,93.326202 263.334412,81.126305 251.282867,70.009621 
	C234.050858,54.114330 218.049072,37.012608 201.104935,20.407852 
	C198.789185,16.097471 194.667297,14.334057 191.250488,11.772328 
	C189.929199,10.781697 188.370834,10.052691 187.223373,8.869474 
	C185.324844,6.911818 185.980667,4.282891 188.529709,3.316989 
	C189.792862,2.838352 191.159393,3.006604 192.484833,3.006268 
	C226.556381,2.997638 260.627930,2.993149 294.699463,3.015805 
	C296.650360,3.017102 298.746521,2.600965 300.655945,4.666411 
	C301.000000,43.687561 301.000000,82.375122 301.000000,121.531342 
	C298.722656,123.781151 297.453491,122.505524 296.508514,120.468910 
	C294.729431,116.634689 292.457642,113.086777 289.866882,109.619057 
	C289.496643,109.730530 289.280670,109.684280 289.275269,109.573982 
	C289.128021,107.551743 287.944458,106.360474 286.166931,105.213821 
z"/>
<path fill="#47704C" opacity="1.000000" stroke="none" 
	d="
M2.790798,169.827454 
	C4.952623,177.254013 8.749721,183.534119 12.588591,190.185562 
	C6.445924,192.434113 7.323606,197.499481 7.343384,202.473511 
	C7.451326,229.619797 7.373024,256.766724 7.406779,283.913391 
	C7.416506,291.736237 8.247072,292.582977 15.951129,292.592255 
	C44.763245,292.626892 73.575401,292.609344 102.387535,292.593079 
	C103.991493,292.592194 105.678886,292.879608 107.295647,291.883759 
	C106.290932,288.285950 100.112900,287.492981 102.729691,282.160034 
	C109.563927,285.823608 115.725914,290.380676 122.802940,293.401276 
	C127.909050,295.580719 133.052948,297.574036 138.796082,298.669067 
	C94.239952,299.000000 49.479790,298.960022 4.720090,299.084869 
	C1.540673,299.093719 0.915863,298.292938 0.924125,295.231903 
	C1.036847,253.467285 1.000000,211.702255 1.000000,169.468658 
	C1.749415,168.554840 2.204609,168.993835 2.790798,169.827454 
z"/>
<path fill="#47704C" opacity="1.000000" stroke="none" 
	d="
M301.000000,4.500000 
	C265.237976,5.000056 229.475922,4.983212 193.714005,5.044513 
	C191.688751,5.047985 188.550430,3.932848 187.916901,6.324713 
	C187.325348,8.558044 190.752304,9.026134 192.223236,10.467668 
	C195.184814,13.370023 200.277786,14.196667 200.939972,19.737808 
	C190.642319,12.631753 180.011978,5.755813 167.178131,2.408553 
	C166.754425,1.921057 166.550980,1.727304 166.673767,1.266776 
	C210.500000,1.000000 254.000000,1.007927 297.499969,0.976650 
	C299.680817,0.975082 301.923126,0.561908 301.000000,4.500000 
z"/>
<path fill="#47704C" opacity="1.000000" stroke="none" 
	d="
M289.654205,110.017731 
	C293.856689,109.869926 293.742493,114.158463 295.693359,116.509712 
	C297.205597,118.332314 297.252197,121.379242 300.646240,121.960556 
	C301.000000,125.692909 301.000000,129.385818 301.000000,133.539368 
	C300.842804,134.125427 300.685577,134.250854 300.315979,134.162048 
	C299.002533,131.226166 299.108582,128.079208 297.006378,125.323654 
	C296.494690,124.548744 296.159943,124.097626 296.098572,123.233261 
	C295.041962,118.222481 291.474487,114.737862 289.654205,110.017731 
z"/>
<path fill="#47704C" opacity="1.000000" stroke="none" 
	d="
M171.555115,296.928070 
	C171.968628,297.354828 171.979004,297.824860 171.994690,298.647461 
	C169.299988,299.000000 166.599976,299.000000 163.449982,299.000000 
	C165.563797,297.706848 168.338379,297.260681 171.555115,296.928070 
z"/>
<path fill="#47704C" opacity="1.000000" stroke="none" 
	d="
M301.000000,169.562500 
	C300.529907,169.991882 300.059845,169.983749 299.237244,169.966949 
	C298.705017,167.613480 299.763611,165.544785 300.676636,163.185776 
	C301.000000,165.041672 301.000000,167.083328 301.000000,169.562500 
z"/>
<path fill="#00AEE6" opacity="1.000000" stroke="none" 
	d="
M1.000000,133.416656 
	C1.436351,132.989792 1.872703,132.979584 2.633679,132.927017 
	C2.854644,134.575439 3.428875,136.451202 1.324218,137.842178 
	C1.000000,136.611115 1.000000,135.222214 1.000000,133.416656 
z"/>
<path fill="#00AEE6" opacity="1.000000" stroke="none" 
	d="
M2.965416,169.709137 
	C2.489190,169.793228 2.020787,169.471954 1.276192,169.075348 
	C1.000000,168.555557 1.000000,168.111099 1.000000,167.333328 
	C1.136948,166.833328 1.273896,166.666672 1.205422,166.250000 
	C1.000000,165.555557 1.000000,165.111099 1.000000,164.333328 
	C3.533925,165.069916 2.857405,167.334244 2.965416,169.709137 
z"/>
<path fill="#00AEE6" opacity="1.000000" stroke="none" 
	d="
M299.922241,134.178894 
	C300.103577,133.947784 300.549683,134.009964 300.774841,134.004974 
	C301.000000,134.750000 301.000000,135.500000 301.000000,136.625000 
	C299.719757,136.555008 298.948395,135.862640 299.922241,134.178894 
z"/>
<path fill="#47704C" opacity="1.000000" stroke="none" 
	d="
M166.583344,1.000000 
	C166.993378,1.185814 166.986755,1.371629 166.969009,1.836126 
	C165.435349,1.961273 163.912827,1.807737 162.195145,1.327100 
	C163.388885,1.000000 164.777786,1.000000 166.583344,1.000000 
z"/>
<path fill="#00AEE6" opacity="1.000000" stroke="none" 
	d="
M1.000000,166.250000 
	C1.217529,166.227890 1.273131,166.484787 1.083404,166.885345 
	C1.000000,167.000000 1.000000,166.500000 1.000000,166.250000 
z"/>
<path fill="#47704C" opacity="1.000000" stroke="none" 
	d="
M300.500000,299.000000 
	C300.186523,298.744110 300.397369,298.510132 300.816284,298.149048 
	C301.000000,298.333344 301.000000,298.666656 300.500000,299.000000 
z"/>
<path fill="#47704C" opacity="1.000000" stroke="none" 
	d="
M102.888184,281.584991 
	C103.100822,286.230194 107.336937,286.940552 109.625549,289.334442 
	C111.198441,290.979675 113.704201,291.565704 115.031731,293.687988 
	C114.009163,295.744568 112.120476,294.956116 110.654266,294.958405 
	C77.377762,295.010773 44.101086,294.966858 10.824677,295.043182 
	C7.114869,295.051697 4.919422,294.437195 4.936374,289.924957 
	C5.063892,255.983307 5.004385,222.041000 5.025338,188.098907 
	C5.025928,187.143021 5.271998,186.187302 5.456974,184.843903 
	C8.721365,185.848099 8.582349,190.370392 12.412477,190.493195 
	C12.788705,190.481384 12.768050,190.518143 12.749100,190.527222 
	C12.918948,192.417511 14.020994,193.666580 15.834610,194.787292 
	C29.815754,208.877838 43.512257,222.802628 57.225315,236.711090 
	C58.608932,238.114426 59.844318,239.724716 61.982498,240.732819 
	C62.277805,241.184464 62.388969,241.342300 62.736988,241.666748 
	C63.284870,242.057312 63.595905,242.281265 64.036789,242.765915 
	C64.277809,243.184464 64.388969,243.342300 64.736984,243.666748 
	C65.284874,244.057312 65.595909,244.281265 66.036797,244.765915 
	C66.277809,245.184464 66.388969,245.342300 66.736984,245.666748 
	C78.895813,257.652588 90.817795,269.471832 102.888184,281.584991 
z"/>
<path fill="#47704C" opacity="1.000000" stroke="none" 
	d="
M113.271797,79.772507 
	C108.914452,76.815704 109.401367,74.532791 112.972923,71.347443 
	C118.931786,66.032944 124.555244,60.305470 129.983139,54.440205 
	C141.429413,42.071625 157.385132,41.466503 170.875626,53.518986 
	C178.558960,60.383308 185.554352,68.017654 193.101822,75.546936 
	C179.678253,88.919289 166.407303,102.028145 153.299728,115.298363 
	C150.898285,117.729614 149.757538,116.293373 148.141464,114.670181 
	C136.621170,103.099060 125.065033,91.563622 113.271797,79.772507 
z"/>
<path fill="#47704C" opacity="1.000000" stroke="none" 
	d="
M121.250023,235.750031 
	C117.248146,231.346115 110.059616,227.889847 110.233650,223.337067 
	C110.389038,219.272064 117.099915,215.428497 120.971626,211.540573 
	C130.015518,202.458755 139.130005,193.446793 148.120514,184.312637 
	C149.812195,182.593918 150.800034,182.213165 152.753143,184.145554 
	C165.150742,196.411621 177.639832,208.587189 190.243683,220.641068 
	C192.580521,222.875931 192.619324,224.113464 190.257812,226.356766 
	C183.622528,232.659943 177.125916,239.121857 170.808853,245.744598 
	C158.451996,258.699371 143.894638,256.575195 131.422089,245.845734 
	C127.898819,242.814835 124.795807,239.295410 121.250023,235.750031 
z"/>
<path fill="#47704C" opacity="1.000000" stroke="none" 
	d="
M192.173477,159.222504 
	C190.666977,157.920517 189.448456,156.798645 188.093750,155.395599 
	C185.824768,152.079453 187.412079,149.903168 189.543839,147.731598 
	C198.265778,138.846771 207.147675,130.121979 215.929245,121.296951 
	C219.431946,117.776932 222.959503,114.295753 226.166565,110.197716 
	C230.168945,113.048683 232.643005,117.177933 236.982498,119.732849 
	C237.277802,120.184471 237.388977,120.342293 237.736984,120.666733 
	C242.228607,125.031929 246.978561,128.841599 250.641113,133.505280 
	C259.951569,145.360718 256.666870,158.378662 248.114532,168.198730 
	C241.789108,175.461807 234.488876,181.868683 227.788727,188.816910 
	C225.649704,191.035172 224.287354,190.950256 222.185577,188.787659 
	C214.298660,180.672577 206.246140,172.718460 198.106720,164.409332 
	C196.821060,161.732834 194.921951,160.240326 192.173477,159.222504 
z"/>
<path fill="#47704C" opacity="1.000000" stroke="none" 
	d="
M62.178013,177.225647 
	C59.008648,174.262650 56.131821,171.482925 53.106346,168.408905 
	C51.040081,164.114990 48.274399,160.609024 47.399971,156.004990 
	C45.472858,145.858398 50.113705,138.147018 56.274700,131.138260 
	C61.873051,124.769569 68.196770,119.057251 74.169853,113.025139 
	C75.694405,111.485542 77.218704,110.421486 79.770882,111.756882 
	C91.324387,123.070351 102.534386,134.183212 113.893372,145.590759 
	C115.729614,148.334076 115.321037,150.284973 113.156395,152.418198 
	C102.039444,163.373718 90.987724,174.397369 80.052513,185.533997 
	C77.589737,188.042130 75.316376,188.189774 72.242920,186.246384 
	C71.909630,186.058731 71.977951,186.022110 71.960129,186.056519 
	C69.661743,182.240494 66.602058,179.240051 62.178013,177.225647 
z"/>
<path fill="#47704C" opacity="1.000000" stroke="none" 
	d="
M79.958389,111.657524 
	C79.327118,112.178970 78.257172,112.145920 77.794518,112.659706 
	C69.404480,121.977051 58.863892,129.377319 52.451717,140.436737 
	C48.120041,147.907822 47.488167,155.725113 51.683079,163.618790 
	C52.288914,164.758789 52.518139,166.098938 52.939671,167.730545 
	C45.330036,161.637177 42.774506,149.246429 47.204128,140.320297 
	C51.576473,131.509598 58.470619,124.966583 65.257576,118.239128 
	C67.613220,115.904137 70.219818,113.758484 72.230606,111.154747 
	C75.068733,107.479736 77.370697,107.835960 79.958389,111.657524 
z"/>
<path fill="#47704C" opacity="1.000000" stroke="none" 
	d="
M226.512817,110.199631 
	C226.235825,113.527870 224.581345,116.027504 222.214706,118.355820 
	C212.004669,128.400482 201.916016,138.568695 191.803513,148.712204 
	C190.178894,150.341812 188.194229,151.766678 187.991547,154.748032 
	C182.823990,150.678421 182.820786,150.675217 187.329300,146.172150 
	C199.335464,134.180588 211.344666,122.192039 223.651093,110.048378 
	C224.582520,109.969414 225.208862,110.078239 226.138611,110.248154 
	C226.456436,110.235558 226.487610,110.194435 226.512817,110.199631 
z"/>
<path fill="#47704C" opacity="1.000000" stroke="none" 
	d="
M72.054840,186.350739 
	C75.833130,186.482254 78.749924,184.940247 81.511902,182.096710 
	C91.070938,172.255447 100.854652,162.632217 110.568954,152.942139 
	C112.342781,151.172729 114.171104,149.467468 114.026596,146.270203 
	C117.856438,148.075943 117.876793,149.935806 114.522865,153.152740 
	C103.011375,164.194031 91.657379,175.421097 80.715233,187.022415 
	C77.006065,190.955048 74.880836,190.437317 72.054840,186.350739 
z"/>
<path fill="#47704C" opacity="1.000000" stroke="none" 
	d="
M62.034859,177.334808 
	C67.364281,177.329330 70.204391,179.681412 71.928665,185.719727 
	C71.014565,185.570679 70.086830,185.050415 68.996223,184.251770 
	C68.722191,183.815536 68.611031,183.657700 68.263016,183.333252 
	C67.715134,182.942673 67.404099,182.718719 66.963211,182.234070 
	C66.722191,181.815536 66.611031,181.657700 66.263016,181.333252 
	C64.745529,179.986832 63.464890,178.807037 62.034859,177.334808 
z"/>
<path fill="#47704C" opacity="1.000000" stroke="none" 
	d="
M192.039276,159.339645 
	C195.100967,158.783813 197.690521,159.403824 197.937744,163.727234 
	C195.718033,163.031662 193.761795,161.583710 192.039276,159.339645 
z"/>
<path fill="#47704C" opacity="1.000000" stroke="none" 
	d="
M15.970570,194.662903 
	C13.764319,194.863007 12.364495,193.831192 12.613482,190.912476 
	C14.412409,191.288223 14.859643,193.038162 15.970570,194.662903 
z"/>
<path fill="#47704C" opacity="1.000000" stroke="none" 
	d="
M286.029419,105.337082 
	C288.235718,105.136925 289.635376,106.168877 289.386475,109.087494 
	C287.587585,108.711739 287.140350,106.961838 286.029419,105.337082 
z"/>
<path fill="#47704C" opacity="1.000000" stroke="none" 
	d="
M226.300598,110.012604 
	C225.806595,110.245667 225.156738,110.255775 224.228226,110.080170 
	C224.630753,108.801262 225.370316,108.930138 226.300598,110.012604 
z"/>
<path fill="#00AEE6" opacity="1.000000" stroke="none" 
	d="
M295.964478,123.138313 
	C296.382538,123.436195 296.656555,123.920151 296.881958,124.700989 
	C296.050934,124.709267 295.315735,124.392075 295.964478,123.138313 
z"/>
<path fill="#00AEE6" opacity="1.000000" stroke="none" 
	d="
M68.147865,183.313553 
	C68.383842,183.064163 68.650253,183.177063 68.829376,183.739349 
	C68.629364,183.820084 68.441437,183.649109 68.147865,183.313553 
z"/>
<path fill="#00AEE6" opacity="1.000000" stroke="none" 
	d="
M66.147865,181.313553 
	C66.383842,181.064163 66.650253,181.177063 66.829376,181.739349 
	C66.629364,181.820084 66.441437,181.649109 66.147865,181.313553 
z"/>
<path fill="#00AEE6" opacity="1.000000" stroke="none" 
	d="
M62.852139,241.686462 
	C62.616173,241.935822 62.349762,241.822937 62.170624,241.260666 
	C62.370625,241.179977 62.558556,241.350952 62.852139,241.686462 
z"/>
<path fill="#00AEE6" opacity="1.000000" stroke="none" 
	d="
M64.852135,243.686447 
	C64.616158,243.935837 64.349747,243.822937 64.170624,243.260651 
	C64.370636,243.179916 64.558563,243.350891 64.852135,243.686447 
z"/>
<path fill="#00AEE6" opacity="1.000000" stroke="none" 
	d="
M66.852135,245.686447 
	C66.616158,245.935837 66.349747,245.822937 66.170624,245.260651 
	C66.370636,245.179916 66.558563,245.350891 66.852135,245.686447 
z"/>
<path fill="#00AEE6" opacity="1.000000" stroke="none" 
	d="
M220.686462,259.147827 
	C220.935806,259.383759 220.822937,259.650208 220.260712,259.829407 
	C220.179977,259.629364 220.350922,259.441406 220.686462,259.147827 
z"/>
<path fill="#00AEE6" opacity="1.000000" stroke="none" 
	d="
M237.852127,120.686440 
	C237.616165,120.935814 237.349747,120.822922 237.170609,120.260666 
	C237.370621,120.179947 237.558548,120.350914 237.852127,120.686440 
z"/>
</svg>