<svg version="1.1" id="Layer_1" xmlns="http://www.w3.org/2000/svg" xmlns:xlink="http://www.w3.org/1999/xlink" x="0px" y="0px"
	 width="100%" viewBox="0 0 267 300" enable-background="new 0 0 267 300" xml:space="preserve">
<path fill="#47704C" opacity="1.000000" stroke="none" 
	d="
M268.000000,5.000000 
	C268.000000,62.354229 268.000000,119.708458 267.674133,177.420914 
	C265.588623,175.883682 263.416962,174.227921 262.148285,172.046860 
	C258.641632,166.018326 255.675003,159.676422 252.189072,153.634872 
	C248.469589,147.188583 245.906021,141.743744 248.703476,133.147308 
	C253.031647,119.847038 254.239304,105.502640 256.410858,91.545097 
	C257.147949,86.807503 256.328705,82.129753 250.639130,79.895576 
	C249.920807,79.209938 249.439941,78.662910 248.891953,77.754700 
	C247.447571,75.646454 246.432434,73.070663 244.634964,72.285202 
	C231.810989,66.681419 218.867569,61.340874 205.844208,56.216316 
	C204.205215,55.571400 200.522018,56.084599 200.094879,57.066071 
	C197.704681,62.558189 196.024017,68.359100 194.074890,74.407501 
	C194.046066,75.468185 194.043335,76.175903 194.126389,77.231079 
	C195.578720,79.132881 196.725998,80.999535 198.372314,82.155441 
	C200.085617,83.358383 202.383209,83.694283 204.235718,84.743927 
	C205.992142,85.739143 207.503006,87.167763 209.121857,88.405792 
	C207.671570,89.777672 206.394104,91.426025 204.734665,92.463303 
	C201.384827,94.557205 197.660233,96.080383 194.439178,98.337074 
	C193.177032,99.221321 192.851868,101.442963 192.076355,103.416206 
	C192.068283,104.499245 192.083801,105.221581 192.009155,106.251961 
	C192.070831,112.250381 194.932693,116.426094 199.286835,119.684464 
	C199.276001,119.607254 199.430420,119.585548 199.481369,119.950180 
	C200.937027,124.855698 204.051163,124.034477 207.076553,122.498718 
	C211.814285,120.093758 216.453293,117.488266 221.076263,114.865730 
	C223.514969,113.482285 225.477432,113.705849 227.067749,116.423676 
	C226.966888,117.533279 226.900162,118.272934 226.666809,119.187881 
	C226.367203,120.260231 226.234207,121.157272 226.067291,122.424194 
	C225.966705,123.533577 225.900070,124.273079 225.666809,125.187881 
	C225.367172,126.260231 225.234192,127.157280 225.073959,128.456467 
	C225.045639,130.201309 225.044556,131.544006 225.127502,133.242462 
	C227.431641,135.215103 229.496796,137.140244 231.917953,138.357010 
	C234.082504,139.444824 236.639786,139.751175 239.023773,140.402328 
	C239.061493,140.902390 239.099197,141.402451 239.136902,141.902512 
	C237.764999,142.901398 236.359421,143.857620 235.027985,144.907852 
	C232.012589,147.286301 229.033752,149.711105 226.052734,152.478668 
	C229.358047,159.488205 232.650696,166.136124 235.468048,172.753998 
	C227.491882,171.495056 219.982056,170.317810 212.494156,169.014511 
	C208.991974,168.404938 206.598709,169.238327 206.156799,173.419983 
	C205.460266,179.521591 204.648193,185.318695 203.756287,191.685852 
	C213.788971,193.632339 223.902222,195.594467 235.521164,197.848724 
	C228.845444,203.585907 223.382645,208.490082 217.676575,213.092682 
	C214.985413,215.263397 214.668747,217.101395 216.913010,219.697083 
	C220.366058,223.690842 223.670609,227.813004 227.032852,232.270599 
	C227.018356,233.440353 227.009186,234.220169 226.611481,234.938324 
	C222.206436,233.815079 218.202652,232.701782 214.169388,231.708298 
	C210.920258,230.907974 208.158142,231.341797 207.010117,235.500641 
	C204.846115,243.412430 202.715866,250.936325 200.183899,259.878998 
	C195.536102,253.246414 191.788528,247.908707 188.051712,242.563492 
	C182.419220,234.506760 183.559708,232.600388 173.932434,239.363464 
	C173.414734,239.727127 172.714630,239.831131 171.800934,240.000916 
	C167.896637,239.806625 166.289948,241.389877 167.080368,245.369995 
	C167.073593,246.104416 167.086548,246.524246 167.046692,247.182953 
	C167.429916,248.207184 167.865967,248.992569 168.287857,249.750931 
	C168.273712,249.723923 168.334503,249.719162 168.387451,250.081635 
	C171.395111,254.544769 174.349792,258.645447 177.329895,262.699219 
	C177.355331,262.652283 177.449203,262.703094 177.389404,263.041626 
	C175.842896,264.568695 174.471771,266.536530 172.844559,266.777893 
	C169.779617,267.232574 166.555695,266.818939 163.418213,266.538574 
	C156.935684,265.959259 155.312057,267.565796 156.073456,274.517151 
	C156.068512,279.972198 156.091125,284.964569 156.075272,290.243408 
	C156.264038,294.288116 159.233963,293.746887 161.582123,293.942139 
	C168.265167,294.497925 174.958588,294.928650 181.647934,295.408600 
	C180.126938,296.701935 178.594666,296.968536 177.061661,296.972870 
	C165.105698,297.006531 153.149353,297.035645 141.193634,296.970154 
	C134.785065,296.935059 134.541336,296.543213 135.651505,290.038544 
	C137.058594,281.794037 133.248337,273.078369 126.946205,270.060883 
	C126.967499,270.044617 126.949936,270.088806 126.883118,269.729553 
	C125.760185,267.760468 125.068237,265.563232 123.584404,264.643433 
	C117.437714,260.833282 111.088898,260.921570 104.896935,264.786560 
	C98.889397,268.536438 94.910736,273.403290 96.073822,281.474487 
	C96.064224,283.577667 96.081795,285.260803 96.005585,287.259827 
	C95.257812,291.245331 96.521347,293.821747 100.414246,295.182312 
	C101.057335,295.733337 101.453583,296.141815 101.329773,296.604156 
	C70.835953,296.757629 40.862076,296.834625 10.888518,296.978546 
	C5.756735,297.003204 4.985146,293.888336 4.989253,289.741699 
	C5.027857,250.770859 5.002583,211.799973 5.035668,172.829102 
	C5.037095,171.147583 5.426981,169.466385 5.707068,167.212402 
	C11.056255,172.653778 22.643566,195.615448 24.082218,203.468628 
	C23.978237,205.600357 23.905828,207.306488 23.666800,209.187897 
	C23.367188,210.260239 23.234198,211.157272 23.073614,212.508682 
	C22.975153,216.312897 22.904285,219.662750 22.666798,223.187897 
	C22.367184,224.260239 22.234194,225.157272 22.073618,226.511169 
	C21.975161,230.649536 21.904289,234.331070 21.666798,238.187897 
	C21.367186,239.260239 21.234196,240.157272 21.073582,241.516052 
	C21.063679,246.633072 21.081394,251.288376 21.052719,256.215271 
	C22.033903,257.642365 23.061481,258.797821 24.059483,259.956848 
	C24.029909,259.960419 24.050604,259.904541 24.130144,260.257202 
	C26.371161,262.425415 28.252972,265.095459 30.742050,265.910156 
	C42.103371,269.628876 53.650818,272.774841 65.101326,276.226318 
	C76.584030,279.687500 77.941177,278.987823 81.157593,267.425354 
	C83.970436,257.313660 81.392029,252.764069 71.161484,249.586304 
	C69.091690,248.943405 67.113365,248.006027 63.775841,246.681900 
	C68.790619,243.016907 72.646477,240.261993 76.434189,237.416351 
	C82.563118,232.811752 82.266251,227.518417 75.622253,223.394470 
	C75.551140,223.535797 75.236557,223.570053 75.226692,223.197021 
	C75.017174,221.849899 74.968475,220.813248 74.594597,219.911392 
	C70.693977,210.502548 68.662117,209.884995 60.310055,215.457382 
	C56.259789,218.159668 52.198296,220.845108 46.911163,224.355255 
	C46.911163,218.811020 47.092838,214.876816 46.871223,210.965469 
	C46.477894,204.023453 43.909653,201.255981 37.198280,199.878372 
	C36.135956,199.660309 35.147392,199.082870 33.221333,198.308258 
	C34.975033,196.651260 36.006481,195.103973 37.448860,194.406555 
	C47.025719,189.776047 46.919353,188.845932 41.204456,178.831482 
	C40.131336,176.951004 39.020706,175.083969 38.086357,173.134552 
	C37.216434,171.319565 36.558426,169.403015 35.433723,166.600815 
	C38.333626,166.901474 40.104504,167.013367 41.851875,167.279556 
	C47.285976,168.107376 52.701473,169.061707 58.142731,169.836777 
	C62.845043,170.506561 65.883202,168.893204 66.413612,163.685669 
	C66.750450,160.378571 67.610001,157.128006 68.049255,153.827332 
	C68.857651,147.752869 65.792122,143.431503 59.794876,142.180115 
	C55.882626,141.363770 51.900837,140.867813 48.007477,139.977768 
	C44.760174,139.235428 44.286907,137.395065 46.744881,135.070160 
	C49.041729,132.897659 51.563400,130.949249 53.744221,128.670670 
	C57.448246,124.800644 56.917904,122.660942 51.604401,119.865616 
	C49.202900,117.165588 47.081028,114.640762 44.899944,111.746857 
	C44.227154,109.251846 43.613575,107.125923 43.398674,105.061768 
	C47.528515,105.801476 51.250969,106.532486 54.992558,107.147003 
	C64.678833,108.737900 65.970825,107.640022 67.907745,98.001167 
	C68.931534,92.906372 70.676979,87.956581 72.353424,83.156204 
	C77.752495,89.540520 82.894753,95.709946 88.168701,102.180183 
	C90.196449,105.712509 92.442352,104.525352 94.500038,102.810356 
	C97.687981,100.153336 100.841530,97.437294 103.818321,94.549072 
	C107.781059,90.704231 107.117790,87.780289 101.645660,84.901550 
	C100.924614,84.213539 100.441887,83.664742 99.891968,82.762283 
	C98.511169,80.952644 97.197563,79.496658 95.627739,77.887970 
	C94.567406,76.862160 93.763283,75.989052 92.891968,74.762283 
	C91.511162,72.952644 90.197563,71.496666 88.604858,69.862564 
	C87.576584,68.878586 86.827400,68.072731 86.609993,67.235863 
	C94.450867,66.782898 101.756721,66.286774 109.070305,65.967590 
	C113.268379,65.784370 115.150620,63.779812 114.793854,59.620262 
	C114.438354,55.475353 114.278427,51.302483 113.687851,47.191422 
	C112.697342,40.296303 109.213928,37.683350 102.395050,38.187199 
	C97.752365,38.530251 93.101433,38.779190 88.450554,38.990238 
	C79.642990,39.389912 70.825020,39.604027 62.026253,40.139675 
	C55.300667,40.549103 50.746670,45.294876 51.067017,51.424500 
	C50.966583,52.533768 50.900002,53.273197 50.666801,54.187912 
	C50.367195,55.260235 50.234211,56.157269 50.059044,57.381111 
	C49.955711,58.142815 49.894566,58.577721 49.666801,59.187912 
	C49.367195,60.260235 49.234211,61.157269 49.067276,62.424187 
	C48.966690,63.533573 48.900055,64.273087 48.666801,65.187881 
	C48.367199,66.260223 48.234215,67.157265 48.067280,68.424194 
	C47.966694,69.533585 47.900055,70.273087 47.666801,71.187881 
	C47.367199,72.260223 47.234215,73.157265 47.059048,74.381104 
	C46.955715,75.142799 46.894569,75.577698 46.666801,76.187881 
	C46.367199,77.260223 46.234215,78.157265 46.067280,79.424194 
	C45.966694,80.533585 45.900059,81.273087 45.666801,82.187881 
	C45.367203,83.260223 45.234219,84.157265 45.059048,85.381104 
	C44.955715,86.142799 44.894566,86.577698 44.666801,87.187881 
	C44.367199,88.260223 44.234215,89.157265 44.067284,90.424194 
	C43.966694,91.533585 43.900059,92.273087 43.666801,93.187881 
	C43.367199,94.260223 43.234215,95.157265 43.074371,96.460861 
	C43.063240,98.224777 43.078968,99.582138 42.957851,101.235153 
	C42.547340,102.353874 42.273670,103.176933 41.656235,104.082321 
	C39.753410,105.078247 38.007805,105.776726 36.665703,106.940536 
	C28.244669,114.242851 19.952280,121.693741 11.514199,128.975983 
	C10.119844,130.179321 8.217957,130.794586 6.550622,131.681625 
	C6.037971,129.843140 5.082202,128.005661 5.077997,126.166016 
	C4.991211,88.202454 4.992064,50.238617 5.033223,12.274898 
	C5.040012,6.012635 6.034091,5.036438 12.367763,5.030736 
	C53.328636,4.993866 94.289566,5.000378 135.250397,5.054182 
	C137.061600,5.056561 138.872025,5.657082 140.682800,5.978988 
	C139.599930,8.126426 138.340775,9.073302 136.998016,9.881278 
	C130.295898,13.914128 123.512032,17.816103 116.907326,22.001465 
	C115.626823,22.812910 115.015251,24.679962 114.072716,26.420235 
	C114.066574,27.501484 114.082840,28.222584 114.041443,29.238060 
	C116.445885,34.480484 118.778526,39.498802 121.413475,44.353016 
	C123.317200,47.860138 126.385811,48.514816 129.848282,46.627621 
	C133.178207,44.812675 136.446976,42.879360 139.683838,40.901894 
	C142.226349,39.348637 144.341660,39.554379 146.067780,42.423668 
	C145.966934,43.533287 145.900177,44.272953 145.666809,45.187904 
	C145.367188,46.260231 145.234207,47.157269 145.059052,48.381111 
	C144.955734,49.142815 144.894577,49.577717 144.666809,50.187908 
	C144.367218,51.260235 144.234222,52.157272 144.067322,53.424194 
	C143.966721,54.533592 143.900070,55.273106 143.666809,56.187904 
	C143.367188,57.260231 143.234207,58.157269 143.073807,59.474419 
	C143.062485,61.576191 143.078598,63.257854 143.054794,65.222702 
	C144.466599,66.779442 145.728088,68.706932 147.408081,69.195587 
	C151.369461,70.347824 155.538620,70.771751 159.608185,71.569557 
	C164.339966,72.497192 166.809921,70.573128 167.534760,65.838852 
	C168.388138,60.265022 169.661713,54.753174 170.437836,49.170620 
	C171.037994,44.853790 172.943771,43.281704 177.309189,45.070534 
	C177.743713,45.368591 177.923157,45.602623 178.107483,46.236816 
	C179.479111,48.044544 180.784058,49.499496 182.059784,50.962090 
	C182.030533,50.969730 182.049362,50.912300 182.111954,51.258278 
	C183.215363,52.992458 184.256180,54.380657 185.283264,55.671722 
	C185.269531,55.574585 185.463791,55.547100 185.502045,55.909668 
	C186.878342,60.640816 189.548630,60.100910 192.351181,57.929726 
	C195.363388,55.596115 198.190857,53.023026 201.084671,50.537846 
	C206.805908,45.624538 206.078964,41.468212 198.940155,38.038261 
	C198.969299,38.030262 198.950760,38.087814 198.884521,37.735275 
	C197.506836,35.935387 196.195404,34.488041 194.690674,32.929325 
	C194.256195,32.631336 194.076797,32.397343 193.892517,31.763184 
	C192.520905,29.955448 191.215942,28.500494 189.940231,27.037941 
	C189.969482,27.030344 189.950745,27.087805 189.884506,26.735264 
	C188.506821,24.935375 187.195389,23.488029 185.690674,21.929314 
	C185.256195,21.631329 185.076797,21.397337 184.892517,20.763186 
	C183.520889,18.955446 182.215942,17.500492 180.940231,16.037941 
	C180.969482,16.030344 180.950745,16.087805 180.884506,15.735263 
	C179.506821,13.935373 178.195389,12.488026 176.690643,10.929292 
	C176.256134,10.631265 176.076691,10.397247 175.938965,9.770822 
	C175.551117,4.254292 179.395874,5.045517 182.390991,5.039577 
	C210.927246,4.982977 239.463638,5.002412 268.000000,5.000000 
M177.968277,122.031471 
	C177.968277,122.031471 177.950760,122.087814 177.818298,121.382721 
	C176.506851,119.935371 175.195389,118.488029 173.497421,116.817902 
	C173.256241,116.631271 173.076828,116.397285 172.824768,115.408630 
	C171.511154,113.952644 170.197556,112.496666 168.497421,110.817902 
	C168.256241,110.631271 168.076828,110.397285 167.824768,109.408630 
	C166.511154,107.952644 165.197556,106.496666 163.497421,104.817902 
	C163.256241,104.631271 163.076828,104.397285 162.825821,103.410400 
	C161.520874,101.955452 160.215927,100.500511 158.968277,99.031471 
	C158.968277,99.031471 158.950760,99.087814 158.818298,98.382721 
	C157.506836,96.935379 156.195389,95.488029 154.497406,93.817879 
	C154.256195,93.631233 154.076752,93.397232 153.820160,92.383476 
	C151.516815,86.668686 146.146866,85.335701 140.101562,89.035530 
	C134.630295,92.384018 129.130539,95.693962 123.785324,99.235214 
	C122.246635,100.254608 121.199554,102.016037 119.791321,103.683647 
	C119.791321,103.683647 119.524460,103.772690 118.915169,103.490913 
	C117.262703,104.495369 115.610245,105.499817 113.561287,106.734306 
	C113.205940,106.775124 112.958893,106.630699 112.091270,106.499771 
	C111.027153,107.484070 109.963036,108.468369 108.661560,110.041245 
	C107.726585,110.147461 106.791618,110.253677 105.124756,110.453072 
	C102.430237,112.673897 99.735718,114.894722 97.137917,117.803352 
	C99.180443,121.401230 101.207733,125.007858 103.268745,128.595108 
	C107.234406,135.497482 107.492371,135.457565 114.187851,131.536163 
	C119.331230,128.523788 124.681564,125.864807 129.939865,123.048683 
	C130.475723,123.461784 131.011581,123.874886 131.547440,124.287987 
	C129.930969,132.740982 128.497833,141.235352 126.605011,149.626007 
	C125.879150,152.843643 126.042343,154.736191 129.661484,155.358948 
	C134.061340,156.116028 138.407944,157.311020 142.832611,157.717056 
	C144.166229,157.839447 146.503830,156.249451 146.954300,154.949356 
	C148.077713,151.707138 148.375290,148.179718 149.015121,144.768799 
	C150.209579,138.401489 151.411682,132.035614 152.855713,124.367546 
	C156.524307,128.967316 159.282562,132.425674 162.174164,136.589584 
	C163.479111,138.044540 164.784058,139.499496 166.031754,140.968597 
	C166.031754,140.968597 166.049362,140.912308 166.174545,141.604263 
	C167.215378,142.992447 168.256195,144.380646 169.269531,145.574524 
	C169.269531,145.574524 169.463837,145.547028 169.540359,146.272369 
	C170.653381,150.324997 173.229050,150.197464 175.987289,148.230942 
	C179.097122,146.013748 181.970993,143.464462 184.936203,141.045746 
	C190.951721,136.138855 190.220779,131.525162 182.497498,127.817947 
	C182.256287,127.631317 182.076843,127.397316 181.825821,126.410393 
	C180.520874,124.955452 179.215927,123.500504 177.968277,122.031471 
M113.016853,230.707916 
	C112.955711,231.142807 112.894569,231.577713 112.500183,232.363174 
	C112.367195,233.260223 112.234200,234.157272 112.047462,235.818878 
	C112.045311,236.840637 112.043152,237.862411 112.189049,239.612015 
	C113.750198,241.096832 115.082375,243.370544 116.919701,243.903839 
	C120.860115,245.047562 125.048256,245.407379 129.159225,245.874664 
	C133.467468,246.364395 136.123444,244.438766 136.867966,240.038589 
	C137.808060,234.482635 138.613953,228.891449 139.885620,223.410080 
	C140.414810,221.129120 141.996857,219.092392 143.769485,217.101547 
	C147.824539,221.712479 151.879578,226.323395 156.006317,231.015854 
	C160.469620,227.174149 164.337997,223.510117 168.568695,220.327759 
	C171.127304,218.403152 171.154068,216.986572 169.247147,214.681900 
	C160.264954,203.826218 151.451401,192.830658 142.437119,182.001999 
	C135.368195,173.510223 130.429077,172.900085 120.968513,178.612137 
	C111.735237,184.186996 102.393448,189.582123 92.450851,194.889740 
	C86.843079,194.990784 84.355583,196.900909 83.277496,202.676132 
	C83.551369,203.431976 83.825241,204.187836 83.984009,205.534851 
	C85.837608,209.685577 87.457458,213.961777 89.601875,217.956375 
	C92.514008,223.381042 94.969116,223.736542 100.461197,220.728912 
	C105.488716,217.975693 110.701950,215.561584 115.898819,213.668488 
	C115.877022,214.116531 115.855217,214.564560 115.500175,215.363174 
	C115.367188,216.260223 115.234200,217.157272 115.033318,218.794098 
	C114.966682,219.533600 114.900047,220.273102 114.500183,221.363174 
	C114.367188,222.260223 114.234200,223.157272 114.033333,224.794098 
	C113.966698,225.533600 113.900063,226.273102 113.500183,227.363174 
	C113.367195,228.260223 113.234200,229.157272 113.016853,230.707916 
z"/>
<path fill="#47704C" opacity="1.000000" stroke="none" 
	d="
M268.000000,206.000000 
	C268.000000,236.020889 268.000000,266.041779 267.531342,296.531342 
	C249.252396,297.000000 231.442123,297.000000 213.292725,297.000000 
	C215.554047,292.112823 217.598358,288.678497 218.773300,284.968811 
	C222.137665,274.346344 224.776550,263.482330 228.437225,252.969772 
	C230.694168,246.488434 230.830887,240.727554 227.388092,234.975891 
	C230.837570,233.436783 234.309265,232.422897 236.884521,230.314209 
	C245.110718,223.578415 252.925430,216.342056 261.084106,209.520309 
	C263.018311,207.903030 265.675415,207.150360 268.000000,206.000000 
z"/>
<path fill="#201D1E" opacity="1.000000" stroke="none" 
	d="
M175.959030,10.115852 
	C176.076691,10.397247 176.256134,10.631265 176.848938,11.218695 
	C178.450592,13.108923 179.700668,14.598363 180.950745,16.087803 
	C180.950745,16.087805 180.969482,16.030344 181.094437,16.329857 
	C182.465988,18.124901 183.712585,19.620432 184.959198,21.115965 
	C185.076797,21.397337 185.256195,21.631329 185.848969,22.218712 
	C187.450607,24.108921 188.700684,25.598360 189.950745,27.087803 
	C189.950745,27.087805 189.969482,27.030344 190.094421,27.329863 
	C191.465973,29.124910 192.712570,30.620440 193.959183,32.115967 
	C194.076797,32.397343 194.256195,32.631336 194.848969,33.218731 
	C196.450607,35.108944 197.700684,36.598381 198.950760,38.087814 
	C198.950760,38.087814 198.969299,38.030262 199.097397,38.335453 
	C202.189682,42.134644 201.938171,44.931328 197.576981,47.060829 
	C196.590240,47.542633 195.986572,48.756157 195.042831,49.388493 
	C191.889832,51.501102 188.662582,53.502869 185.463791,55.547096 
	C185.463791,55.547100 185.269531,55.574585 185.242050,55.331356 
	C184.159500,53.696186 183.104431,52.304245 182.049362,50.912300 
	C182.049362,50.912300 182.030533,50.969730 181.905579,50.670174 
	C180.534012,48.875092 179.287415,47.379562 178.040817,45.884033 
	C177.923157,45.602623 177.743713,45.368591 177.144409,44.772026 
	C174.368301,41.329800 171.950287,38.297489 168.775467,34.316097 
	C166.649094,45.584663 164.767776,55.100559 163.102661,64.654137 
	C162.600571,67.534912 161.419571,68.014839 158.689575,67.446861 
	C153.540283,66.375565 148.298203,65.750221 143.094696,64.939514 
	C143.078598,63.257854 143.062485,61.576191 143.296204,59.234833 
	C143.641830,57.720966 143.737625,56.866791 143.833420,56.012619 
	C143.900070,55.273106 143.966721,54.533592 144.289703,53.184608 
	C144.641830,51.720966 144.737625,50.866791 144.833420,50.012619 
	C144.894577,49.577717 144.955734,49.142815 145.281464,48.141525 
	C145.641846,46.720966 145.737640,45.866795 145.833435,45.012619 
	C145.900177,44.272953 145.966934,43.533287 146.306915,42.126945 
	C147.010574,38.535072 147.441025,35.609875 148.067322,31.353832 
	C144.720093,32.907734 142.756348,33.648972 140.963669,34.685921 
	C136.817993,37.083942 132.736008,39.594296 128.665207,42.118755 
	C125.742638,43.931145 123.556435,44.452488 121.590027,40.520428 
	C119.546730,36.434628 116.632477,32.784393 114.099106,28.943684 
	C114.082840,28.222584 114.066574,27.501484 114.420174,26.352816 
	C122.404541,21.579035 130.066376,17.313107 137.619202,12.862251 
	C144.143799,9.017338 150.544525,4.962202 157.000000,1.000000 
	C160.361664,1.000000 163.723343,1.000000 167.692261,1.298015 
	C170.852676,4.435971 173.405853,7.275912 175.959030,10.115852 
z"/>
<path fill="#201D1E" opacity="1.000000" stroke="none" 
	d="
M235.943329,172.784058 
	C232.650696,166.136124 229.358047,159.488205 226.422974,152.426453 
	C231.362228,149.749298 235.983337,147.561417 240.510315,145.193558 
	C243.107864,143.834915 244.704498,144.271835 246.029861,146.990753 
	C247.986847,151.005356 250.232239,154.880737 252.391983,158.794891 
	C257.583160,168.202942 262.795929,177.599075 268.000000,187.000000 
	C268.000000,190.030594 268.000000,193.061188 267.701538,196.696045 
	C253.948090,208.827087 240.493134,220.353882 227.038177,231.880676 
	C223.670609,227.813004 220.366058,223.690842 216.913010,219.697083 
	C214.668747,217.101395 214.985413,215.263397 217.676575,213.092682 
	C223.382645,208.490082 228.845444,203.585907 235.521164,197.848724 
	C223.902222,195.594467 213.788971,193.632339 203.756287,191.685852 
	C204.648193,185.318695 205.460266,179.521591 206.490448,173.256470 
	C211.061066,173.331558 215.424423,173.800522 219.763443,174.435776 
	C225.674866,175.301239 231.567703,176.293549 238.743576,177.434143 
	C237.251587,174.956543 236.597458,173.870300 235.943329,172.784058 
z"/>
<path fill="#201D1E" opacity="1.000000" stroke="none" 
	d="
M44.959156,112.115936 
	C47.081028,114.640762 49.202900,117.165588 51.738693,120.159470 
	C51.885998,121.786514 51.989365,123.294426 51.285374,124.038742 
	C48.901569,126.559135 46.232941,128.810303 43.671089,131.162109 
	C40.244854,134.307419 36.816692,137.450638 32.667702,141.256775 
	C44.057583,143.366440 54.202576,145.245529 64.674019,147.185089 
	C63.748558,152.338486 62.526306,156.693085 62.287731,161.100952 
	C61.997337,166.466171 59.058163,166.296539 55.202824,165.591324 
	C46.972988,164.085968 38.717079,162.723160 28.839771,161.020630 
	C32.939762,168.365875 36.207260,174.594284 39.843105,180.599670 
	C42.205978,184.502457 42.107552,187.180923 37.593086,189.200699 
	C34.729694,190.481812 32.064606,192.213287 29.336586,193.787842 
	C26.531515,195.406876 24.509911,195.154358 22.932432,191.932907 
	C20.527319,187.021286 17.879601,182.221420 15.174372,177.465408 
	C10.514662,169.273254 5.731409,161.151367 1.000001,153.000000 
	C1.000000,149.638718 1.000000,146.277420 1.298090,142.308167 
	C12.768820,131.925293 24.007887,122.224854 35.084328,112.342148 
	C40.145546,107.826378 40.000183,107.663452 44.959156,112.115936 
z"/>
<path fill="#47704C" opacity="1.000000" stroke="none" 
	d="
M1.000001,153.468658 
	C5.731409,161.151367 10.514662,169.273254 15.174372,177.465408 
	C17.879601,182.221420 20.527319,187.021286 22.932432,191.932907 
	C24.509911,195.154358 26.531515,195.406876 29.336586,193.787842 
	C32.064606,192.213287 34.729694,190.481812 37.593086,189.200699 
	C42.107552,187.180923 42.205978,184.502457 39.843105,180.599670 
	C36.207260,174.594284 32.939762,168.365875 28.839771,161.020630 
	C38.717079,162.723160 46.972988,164.085968 55.202824,165.591324 
	C59.058163,166.296539 61.997337,166.466171 62.287731,161.100952 
	C62.526306,156.693085 63.748558,152.338486 64.674019,147.185089 
	C54.202576,145.245529 44.057583,143.366440 32.667702,141.256775 
	C36.816692,137.450638 40.244854,134.307419 43.671089,131.162109 
	C46.232941,128.810303 48.901569,126.559135 51.285374,124.038742 
	C51.989365,123.294426 51.885998,121.786514 52.018318,120.334671 
	C56.917904,122.660942 57.448246,124.800644 53.744221,128.670670 
	C51.563400,130.949249 49.041729,132.897659 46.744881,135.070160 
	C44.286907,137.395065 44.760174,139.235428 48.007477,139.977768 
	C51.900837,140.867813 55.882626,141.363770 59.794876,142.180115 
	C65.792122,143.431503 68.857651,147.752869 68.049255,153.827332 
	C67.610001,157.128006 66.750450,160.378571 66.413612,163.685669 
	C65.883202,168.893204 62.845043,170.506561 58.142731,169.836777 
	C52.701473,169.061707 47.285976,168.107376 41.851875,167.279556 
	C40.104504,167.013367 38.333626,166.901474 35.433723,166.600815 
	C36.558426,169.403015 37.216434,171.319565 38.086357,173.134552 
	C39.020706,175.083969 40.131336,176.951004 41.204456,178.831482 
	C46.919353,188.845932 47.025719,189.776047 37.448860,194.406555 
	C36.006481,195.103973 34.975033,196.651260 33.221333,198.308258 
	C35.147392,199.082870 36.135956,199.660309 37.198280,199.878372 
	C43.909653,201.255981 46.477894,204.023453 46.871223,210.965469 
	C47.092838,214.876816 46.911163,218.811020 46.911163,224.355255 
	C52.198296,220.845108 56.259789,218.159668 60.310055,215.457382 
	C68.662117,209.884995 70.693977,210.502548 74.594597,219.911392 
	C74.968475,220.813248 75.017174,221.849899 74.985123,222.980682 
	C72.513588,220.161316 70.273773,217.185242 67.920898,214.058975 
	C59.393478,219.804779 51.295296,225.261353 42.055122,231.487411 
	C42.055122,227.124725 41.950943,224.341675 42.078583,221.569290 
	C42.290874,216.958115 42.917355,212.345703 42.777344,207.751846 
	C42.738800,206.487167 40.725815,204.403915 39.400517,204.213211 
	C34.353329,203.486908 29.216885,203.380844 24.113792,203.043015 
	C22.643566,195.615448 11.056255,172.653778 5.707068,167.212402 
	C5.426981,169.466385 5.037095,171.147583 5.035668,172.829102 
	C5.002583,211.799973 5.027857,250.770859 4.989253,289.741699 
	C4.985146,293.888336 5.756735,297.003204 10.888518,296.978546 
	C40.862076,296.834625 70.835953,296.757629 101.571274,296.795105 
	C104.221886,298.288086 106.110947,299.644043 108.000000,301.000000 
	C72.394615,301.000000 36.789238,301.000000 1.000000,301.000000 
	C1.000000,251.979263 1.000000,202.958282 1.000001,153.468658 
z"/>
<path fill="#47704C" opacity="1.000000" stroke="none" 
	d="
M44.899944,111.746857 
	C40.000183,107.663452 40.145546,107.826378 35.084328,112.342148 
	C24.007887,122.224854 12.768820,131.925293 1.298090,141.850098 
	C1.000000,95.069321 1.000000,48.138641 1.000000,1.000000 
	C52.687374,1.000000 104.375031,1.000000 156.531342,1.000000 
	C150.544525,4.962202 144.143799,9.017338 137.619202,12.862251 
	C130.066376,17.313107 122.404541,21.579035 114.442574,25.992664 
	C115.015251,24.679962 115.626823,22.812910 116.907326,22.001465 
	C123.512032,17.816103 130.295898,13.914128 136.998016,9.881278 
	C138.340775,9.073302 139.599930,8.126426 140.682800,5.978988 
	C138.872025,5.657082 137.061600,5.056561 135.250397,5.054182 
	C94.289566,5.000378 53.328636,4.993866 12.367763,5.030736 
	C6.034091,5.036438 5.040012,6.012635 5.033223,12.274898 
	C4.992064,50.238617 4.991211,88.202454 5.077997,126.166016 
	C5.082202,128.005661 6.037971,129.843140 6.550622,131.681625 
	C8.217957,130.794586 10.119844,130.179321 11.514199,128.975983 
	C19.952280,121.693741 28.244669,114.242851 36.665703,106.940536 
	C38.007805,105.776726 39.753410,105.078247 41.822289,104.249603 
	C42.553921,104.557190 42.776550,104.779007 43.000000,105.000000 
	C43.613575,107.125923 44.227154,109.251846 44.899944,111.746857 
z"/>
<path fill="#47704C" opacity="1.000000" stroke="none" 
	d="
M226.611481,234.938324 
	C230.830887,240.727554 230.694168,246.488434 228.437225,252.969772 
	C224.776550,263.482330 222.137665,274.346344 218.773300,284.968811 
	C217.598358,288.678497 215.554047,292.112823 213.292725,297.000000 
	C231.442123,297.000000 249.252396,297.000000 267.531342,297.000000 
	C268.000000,298.329468 268.000000,299.658905 268.000000,300.994202 
	C219.312439,301.000000 170.624878,301.000000 121.672974,300.730530 
	C124.059692,298.039642 127.327179,296.024841 129.244003,293.119080 
	C134.584442,285.023407 132.193497,277.313995 126.924911,270.077148 
	C133.248337,273.078369 137.058594,281.794037 135.651505,290.038544 
	C134.541336,296.543213 134.785065,296.935059 141.193634,296.970154 
	C153.149353,297.035645 165.105698,297.006531 177.061661,296.972870 
	C178.594666,296.968536 180.126938,296.701935 181.647934,295.408600 
	C174.958588,294.928650 168.265167,294.497925 161.582123,293.942139 
	C159.233963,293.746887 156.264038,294.288116 156.531372,290.255188 
	C171.250504,290.950104 185.485855,291.787567 199.695007,292.946106 
	C206.605118,293.509521 212.223236,291.198486 213.740311,286.140472 
	C218.029587,271.839630 222.211136,257.506104 226.329376,243.155121 
	C226.647736,242.045715 226.399841,239.721771 225.978104,239.609909 
	C219.710098,237.947250 213.368240,236.562912 207.043854,235.112762 
	C208.158142,231.341797 210.920258,230.907974 214.169388,231.708298 
	C218.202652,232.701782 222.206436,233.815079 226.611481,234.938324 
z"/>
<path fill="#201D1E" opacity="1.000000" stroke="none" 
	d="
M126.946205,270.060883 
	C132.193497,277.313995 134.584442,285.023407 129.244003,293.119080 
	C127.327179,296.024841 124.059692,298.039642 121.204315,300.730530 
	C116.975456,301.000000 112.950912,301.000000 108.463188,301.000000 
	C106.110947,299.644043 104.221886,298.288086 102.091324,296.741211 
	C101.453583,296.141815 101.057335,295.733337 100.242310,294.867493 
	C98.582138,291.921356 97.340744,289.432678 96.099365,286.943970 
	C96.081795,285.260803 96.064224,283.577667 96.312164,281.203857 
	C97.998688,277.569489 99.097916,274.409210 100.904335,271.724823 
	C105.358192,265.106171 117.747574,263.234436 126.949936,270.088806 
	C126.949936,270.088806 126.967499,270.044617 126.946205,270.060883 
z"/>
<path fill="#47704C" opacity="1.000000" stroke="none" 
	d="
M268.000000,186.550018 
	C262.795929,177.599075 257.583160,168.202942 252.391983,158.794891 
	C250.232239,154.880737 247.986847,151.005356 246.029861,146.990753 
	C244.704498,144.271835 243.107864,143.834915 240.510315,145.193558 
	C235.983337,147.561417 231.362228,149.749298 226.410309,152.064819 
	C229.033752,149.711105 232.012589,147.286301 235.027985,144.907852 
	C236.359421,143.857620 237.764999,142.901398 239.136902,141.902512 
	C239.099197,141.402451 239.061493,140.902390 239.023773,140.402328 
	C236.639786,139.751175 234.082504,139.444824 231.917953,138.357010 
	C229.496796,137.140244 227.431641,135.215103 225.514648,133.329300 
	C230.498016,134.003738 235.163544,135.030563 239.863876,135.860367 
	C242.867889,136.390717 244.463608,134.909866 244.966095,131.897919 
	C246.946533,120.027176 249.030762,108.173798 251.037811,96.307434 
	C251.955612,90.881210 254.473816,85.422180 250.876556,80.034187 
	C256.328705,82.129753 257.147949,86.807503 256.410858,91.545097 
	C254.239304,105.502640 253.031647,119.847038 248.703476,133.147308 
	C245.906021,141.743744 248.469589,147.188583 252.189072,153.634872 
	C255.675003,159.676422 258.641632,166.018326 262.148285,172.046860 
	C263.416962,174.227921 265.588623,175.883682 267.674133,177.889572 
	C268.000000,180.700012 268.000000,183.400024 268.000000,186.550018 
z"/>
<path fill="#47704C" opacity="1.000000" stroke="none" 
	d="
M175.938965,9.770821 
	C173.405853,7.275912 170.852676,4.435971 168.149750,1.298015 
	C200.166672,1.000000 232.333344,1.010653 264.499969,0.976407 
	C266.680847,0.974085 268.923126,0.561908 268.000000,4.500000 
	C239.463638,5.002412 210.927246,4.982977 182.390991,5.039577 
	C179.395874,5.045517 175.551117,4.254292 175.938965,9.770821 
z"/>
<path fill="#47704C" opacity="1.000000" stroke="none" 
	d="
M227.032867,232.270599 
	C240.493134,220.353882 253.948090,208.827087 267.701538,197.150146 
	C268.000000,199.700012 268.000000,202.400024 268.000000,205.550018 
	C265.675415,207.150360 263.018311,207.903030 261.084106,209.520309 
	C252.925430,216.342056 245.110718,223.578415 236.884521,230.314209 
	C234.309265,232.422897 230.837570,233.436783 227.388107,234.975891 
	C227.009186,234.220169 227.018356,233.440353 227.032867,232.270599 
z"/>
<path fill="#201D1E" opacity="1.000000" stroke="none" 
	d="
M181.959167,127.115944 
	C182.076843,127.397316 182.256287,127.631317 182.852325,128.224579 
	C186.744858,132.431046 185.265045,135.245346 181.518372,137.744019 
	C180.024261,138.740448 178.815201,140.173630 177.299118,141.125656 
	C174.762238,142.718689 172.083099,144.085175 169.463837,145.547028 
	C169.463837,145.547028 169.269531,145.574524 169.242065,145.331314 
	C168.159515,143.696167 167.104431,142.304245 166.049362,140.912308 
	C166.049362,140.912308 166.031754,140.968597 165.906189,140.669617 
	C164.534012,138.875092 163.287415,137.379562 162.040817,135.884033 
	C159.282562,132.425674 156.524307,128.967316 152.855713,124.367546 
	C151.411682,132.035614 150.209579,138.401489 149.015121,144.768799 
	C148.375290,148.179718 148.077713,151.707138 146.954300,154.949356 
	C146.503830,156.249451 144.166229,157.839447 142.832611,157.717056 
	C138.407944,157.311020 134.061340,156.116028 129.661484,155.358948 
	C126.042343,154.736191 125.879150,152.843643 126.605011,149.626007 
	C128.497833,141.235352 129.930969,132.740982 131.547440,124.287987 
	C131.011581,123.874886 130.475723,123.461784 129.939865,123.048683 
	C124.681564,125.864807 119.331230,128.523788 114.187851,131.536163 
	C107.492371,135.457565 107.234406,135.497482 103.268745,128.595108 
	C101.207733,125.007858 99.180443,121.401230 97.395348,117.292542 
	C100.387398,114.641113 103.122025,112.500511 105.856644,110.359894 
	C106.791618,110.253677 107.726585,110.147461 109.178238,109.692017 
	C110.736656,108.328873 111.778397,107.314957 112.820129,106.301041 
	C112.958893,106.630699 113.205940,106.775124 114.119247,106.575134 
	C116.292969,105.534866 117.908714,104.653786 119.524460,103.772690 
	C119.524460,103.772690 119.791321,103.683647 120.242126,103.485413 
	C126.668549,100.065147 132.832626,97.142410 138.564377,93.533104 
	C143.821243,90.222816 148.739410,90.048882 153.959061,93.115875 
	C154.076752,93.397232 154.256195,93.631233 154.848969,94.218681 
	C156.450623,96.108925 157.700684,97.598373 158.950760,99.087814 
	C158.950760,99.087814 158.968277,99.031471 159.093842,99.330429 
	C160.465988,101.124908 161.712570,102.620430 162.959167,104.115944 
	C163.076828,104.397285 163.256241,104.631271 163.849472,105.219421 
	C165.454071,107.119278 166.706619,108.617615 167.959167,110.115944 
	C168.076828,110.397285 168.256241,110.631271 168.849472,111.219429 
	C170.454071,113.119286 171.706619,114.617615 172.959167,116.115952 
	C173.076828,116.397285 173.256241,116.631271 173.848984,117.218689 
	C175.450623,119.108925 176.700684,120.598373 177.950760,122.087814 
	C177.950760,122.087814 177.968277,122.031471 178.093842,122.330429 
	C179.465988,124.124908 180.712570,125.620422 181.959167,127.115944 
z"/>
<path fill="#201D1E" opacity="1.000000" stroke="none" 
	d="
M114.833420,221.012604 
	C114.900047,220.273102 114.966682,219.533600 115.289673,218.184616 
	C115.641815,216.720963 115.737610,215.866776 115.833420,215.012604 
	C115.855217,214.564560 115.877022,214.116531 116.030457,213.016327 
	C116.063576,210.851608 115.965050,209.339081 115.866531,207.826538 
	C114.487099,208.108963 112.941917,208.085632 111.757469,208.727722 
	C107.091721,211.257111 102.300903,213.664627 98.014160,216.752686 
	C93.992531,219.649780 92.090385,218.597382 90.132637,214.559998 
	C88.491325,211.175201 86.137474,208.135941 84.099113,204.943680 
	C83.825241,204.187836 83.551369,203.431976 83.451271,202.214355 
	C86.783127,199.520416 89.941208,197.288284 93.099289,195.056152 
	C102.393448,189.582123 111.735237,184.186996 120.968513,178.612137 
	C130.429077,172.900085 135.368195,173.510223 142.437119,182.001999 
	C151.451401,192.830658 160.264954,203.826218 169.247147,214.681900 
	C171.154068,216.986572 171.127304,218.403152 168.568695,220.327759 
	C164.337997,223.510117 160.469620,227.174149 156.006317,231.015854 
	C151.879578,226.323395 147.824539,221.712479 143.353577,216.690704 
	C141.521286,214.658310 140.104904,213.036758 138.688507,211.415222 
	C138.216156,211.674835 137.743805,211.934464 137.271454,212.194092 
	C135.828857,220.468231 134.404999,228.745728 132.933029,237.014648 
	C132.447479,239.742325 131.705261,242.499817 128.051270,241.903900 
	C122.692871,241.030014 117.375725,239.903214 112.041000,238.884171 
	C112.043152,237.862411 112.045311,236.840637 112.296738,235.197006 
	C112.641823,233.720963 112.737617,232.866776 112.833420,232.012604 
	C112.894569,231.577713 112.955711,231.142807 113.281441,230.141525 
	C113.641823,228.720963 113.737617,227.866776 113.833420,227.012604 
	C113.900063,226.273102 113.966698,225.533600 114.289680,224.184616 
	C114.641823,222.720963 114.737625,221.866776 114.833420,221.012604 
z"/>
<path fill="#201D1E" opacity="1.000000" stroke="none" 
	d="
M250.639130,79.895576 
	C254.473816,85.422180 251.955612,90.881210 251.037811,96.307434 
	C249.030762,108.173798 246.946533,120.027176 244.966095,131.897919 
	C244.463608,134.909866 242.867889,136.390717 239.863876,135.860367 
	C235.163544,135.030563 230.498016,134.003738 225.430603,132.973541 
	C225.044556,131.544006 225.045639,130.201309 225.296371,128.216873 
	C225.641830,126.720955 225.737625,125.866776 225.833435,125.012589 
	C225.900070,124.273079 225.966705,123.533577 226.289703,122.184601 
	C226.641830,120.720955 226.737625,119.866776 226.833420,119.012589 
	C226.900162,118.272934 226.966888,117.533279 227.295593,116.166626 
	C227.557571,112.974640 227.557571,110.409660 227.557571,106.510178 
	C220.989639,109.965752 215.294189,113.153290 209.422852,115.974815 
	C206.247055,117.500977 202.771011,118.402328 199.430420,119.585541 
	C199.430420,119.585548 199.276001,119.607254 199.237793,119.321281 
	C196.832825,114.671516 194.466080,110.307724 192.099335,105.943924 
	C192.083801,105.221581 192.068283,104.499245 192.365906,103.238533 
	C201.350815,97.764740 210.022552,92.829315 219.707565,87.317192 
	C210.424881,83.543800 202.232758,80.213715 194.040619,76.883621 
	C194.043335,76.175903 194.046066,75.468185 194.315765,74.149506 
	C196.626602,68.702202 198.670486,63.865856 201.145569,58.009193 
	C217.224655,64.770828 233.091858,71.443352 248.959061,78.115875 
	C249.439941,78.662910 249.920807,79.209938 250.639130,79.895576 
z"/>
<path fill="#201D1E" opacity="1.000000" stroke="none" 
	d="
M44.833420,87.012596 
	C44.894566,86.577698 44.955715,86.142799 45.281452,85.141510 
	C45.641834,83.720947 45.737629,82.866768 45.833420,82.012596 
	C45.900059,81.273087 45.966694,80.533585 46.289688,79.184601 
	C46.641838,77.720947 46.737629,76.866768 46.833420,76.012596 
	C46.894569,75.577698 46.955715,75.142799 47.281456,74.141510 
	C47.641834,72.720947 47.737625,71.866768 47.833420,71.012596 
	C47.900055,70.273087 47.966694,69.533585 48.289688,68.184601 
	C48.641834,66.720947 48.737629,65.866768 48.833420,65.012596 
	C48.900055,64.273087 48.966690,63.533573 49.289680,62.184597 
	C49.641834,60.720963 49.737625,59.866791 49.833420,59.012623 
	C49.894566,58.577721 49.955711,58.142815 50.281448,57.141521 
	C50.641834,55.720963 50.737625,54.866791 50.833420,54.012623 
	C50.900002,53.273197 50.966583,52.533768 51.316353,51.199913 
	C54.548302,48.423935 57.352448,44.615410 60.470486,44.338249 
	C75.142410,43.034081 89.904320,42.770145 104.625305,41.972427 
	C108.795631,41.746441 110.276436,43.399639 110.063210,47.457367 
	C109.934868,49.899719 110.395164,52.396797 110.786461,54.837944 
	C111.737923,60.773853 110.829674,61.771656 104.858437,62.032482 
	C97.666389,62.346638 90.486313,62.934834 83.301064,63.404396 
	C82.943062,63.951092 82.585068,64.497787 82.227066,65.044479 
	C83.510780,65.785278 84.794495,66.526077 86.078217,67.266876 
	C86.827400,68.072731 87.576584,68.878586 88.763649,70.152695 
	C90.454079,72.119278 91.706619,73.617607 92.959167,75.115944 
	C93.763283,75.989052 94.567406,76.862160 95.786530,78.178101 
	C97.454071,80.119278 98.706619,81.617615 99.959167,83.115944 
	C100.441887,83.664742 100.924614,84.213539 101.797081,85.210670 
	C101.688789,87.369949 101.707245,89.603561 100.599861,90.697891 
	C96.617760,94.633034 92.255577,98.183533 88.037010,101.879379 
	C82.894753,95.709946 77.752495,89.540520 72.187119,82.855377 
	C70.437080,81.369034 69.110138,80.398399 67.783203,79.427765 
	C67.176888,80.844521 66.319580,82.208626 66.009392,83.687492 
	C64.896057,88.995522 63.878471,94.327721 63.000881,99.679672 
	C62.418179,103.233246 60.680721,104.395477 57.139244,103.589020 
	C52.497318,102.531982 47.779736,101.807205 43.094692,100.939507 
	C43.078968,99.582138 43.063240,98.224777 43.296780,96.221268 
	C43.641838,94.720947 43.737629,93.866768 43.833420,93.012596 
	C43.900059,92.273087 43.966694,91.533585 44.289688,90.184601 
	C44.641834,88.720947 44.737625,87.866768 44.833420,87.012596 
z"/>
<path fill="#201D1E" opacity="1.000000" stroke="none" 
	d="
M207.010117,235.500641 
	C213.368240,236.562912 219.710098,237.947250 225.978104,239.609909 
	C226.399841,239.721771 226.647736,242.045715 226.329376,243.155121 
	C222.211136,257.506104 218.029587,271.839630 213.740311,286.140472 
	C212.223236,291.198486 206.605118,293.509521 199.695007,292.946106 
	C185.485855,291.787567 171.250504,290.950104 156.569855,289.968750 
	C156.091125,284.964569 156.068512,279.972198 156.319489,274.241699 
	C157.264160,269.494385 159.933243,270.090881 162.925140,270.399902 
	C169.633438,271.092804 176.382324,271.392639 183.114685,271.852478 
	C183.339783,271.371552 183.564896,270.890594 183.789993,270.409668 
	C181.676407,267.840820 179.562805,265.271942 177.449203,262.703094 
	C177.449203,262.703094 177.355331,262.652283 177.276611,262.346313 
	C174.243423,257.933258 171.288956,253.826218 168.334503,249.719162 
	C168.334503,249.719162 168.273712,249.723923 168.257599,249.431030 
	C167.860825,248.406784 167.480164,247.675446 167.099503,246.944092 
	C167.086548,246.524246 167.073593,246.104416 167.352844,245.192322 
	C169.129837,243.152054 170.614639,241.604034 172.099426,240.056000 
	C172.714630,239.831131 173.414734,239.727127 173.932434,239.363464 
	C183.559708,232.600388 182.419220,234.506760 188.051712,242.563492 
	C191.788528,247.908707 195.536102,253.246414 200.183899,259.878998 
	C202.715866,250.936325 204.846115,243.412430 207.010117,235.500641 
z"/>
<path fill="#201D1E" opacity="1.000000" stroke="none" 
	d="
M24.082218,203.468628 
	C29.216885,203.380844 34.353329,203.486908 39.400517,204.213211 
	C40.725815,204.403915 42.738800,206.487167 42.777344,207.751846 
	C42.917355,212.345703 42.290874,216.958115 42.078583,221.569290 
	C41.950943,224.341675 42.055122,227.124725 42.055122,231.487411 
	C51.295296,225.261353 59.393478,219.804779 67.920898,214.058975 
	C70.273773,217.185242 72.513588,220.161316 74.994980,223.353714 
	C75.236557,223.570053 75.551140,223.535797 75.671028,223.736694 
	C78.706055,229.980957 78.682991,229.948395 72.800774,234.114655 
	C66.641846,238.476898 60.533302,242.910278 53.566338,247.913147 
	C56.426167,249.056351 58.305107,249.958511 60.275021,250.565369 
	C65.335426,252.124329 70.439346,253.541595 75.519524,255.037048 
	C78.133461,255.806503 79.427307,257.189728 78.430367,260.190979 
	C76.928986,264.710785 75.709450,269.324188 74.067871,274.929901 
	C57.194172,269.860962 40.622391,264.882751 24.050606,259.904541 
	C24.050604,259.904541 24.029909,259.960419 23.911299,259.674500 
	C22.894833,258.240265 21.996977,257.091980 21.099117,255.943665 
	C21.081394,251.288376 21.063679,246.633072 21.295992,241.276459 
	C21.641819,239.720963 21.737617,238.866776 21.833416,238.012604 
	C21.904289,234.331070 21.975161,230.649536 22.296028,226.271576 
	C22.641821,224.720963 22.737617,223.866776 22.833416,223.012604 
	C22.904285,219.662750 22.975153,216.312897 23.296022,212.269089 
	C23.641823,210.720963 23.737619,209.866776 23.833420,209.012604 
	C23.905828,207.306488 23.978237,205.600357 24.082218,203.468628 
z"/>
<path fill="#47704C" opacity="1.000000" stroke="none" 
	d="
M24.130146,260.257202 
	C40.622391,264.882751 57.194172,269.860962 74.067871,274.929901 
	C75.709450,269.324188 76.928986,264.710785 78.430367,260.190979 
	C79.427307,257.189728 78.133461,255.806503 75.519524,255.037048 
	C70.439346,253.541595 65.335426,252.124329 60.275021,250.565369 
	C58.305107,249.958511 56.426167,249.056351 53.566338,247.913147 
	C60.533302,242.910278 66.641846,238.476898 72.800774,234.114655 
	C78.682991,229.948395 78.706055,229.980957 75.742142,223.595352 
	C82.266251,227.518417 82.563118,232.811752 76.434189,237.416351 
	C72.646477,240.261993 68.790619,243.016907 63.775841,246.681900 
	C67.113365,248.006027 69.091690,248.943405 71.161484,249.586304 
	C81.392029,252.764069 83.970436,257.313660 81.157593,267.425354 
	C77.941177,278.987823 76.584030,279.687500 65.101326,276.226318 
	C53.650818,272.774841 42.103371,269.628876 30.742050,265.910156 
	C28.252972,265.095459 26.371161,262.425415 24.130146,260.257202 
z"/>
<path fill="#47704C" opacity="1.000000" stroke="none" 
	d="
M86.609985,67.235870 
	C84.794495,66.526077 83.510780,65.785278 82.227066,65.044479 
	C82.585068,64.497787 82.943062,63.951092 83.301064,63.404396 
	C90.486313,62.934834 97.666389,62.346638 104.858437,62.032482 
	C110.829674,61.771656 111.737923,60.773853 110.786461,54.837944 
	C110.395164,52.396797 109.934868,49.899719 110.063210,47.457367 
	C110.276436,43.399639 108.795631,41.746441 104.625305,41.972427 
	C89.904320,42.770145 75.142410,43.034081 60.470486,44.338249 
	C57.352448,44.615410 54.548302,48.423935 51.350201,50.830070 
	C50.746670,45.294876 55.300667,40.549103 62.026253,40.139675 
	C70.825020,39.604027 79.642990,39.389912 88.450554,38.990238 
	C93.101433,38.779190 97.752365,38.530251 102.395050,38.187199 
	C109.213928,37.683350 112.697342,40.296303 113.687851,47.191422 
	C114.278427,51.302483 114.438354,55.475353 114.793854,59.620262 
	C115.150620,63.779812 113.268379,65.784370 109.070305,65.967590 
	C101.756721,66.286774 94.450867,66.782898 86.609985,67.235870 
z"/>
<path fill="#47704C" opacity="1.000000" stroke="none" 
	d="
M143.054794,65.222702 
	C148.298203,65.750221 153.540283,66.375565 158.689575,67.446861 
	C161.419571,68.014839 162.600571,67.534912 163.102661,64.654137 
	C164.767776,55.100559 166.649094,45.584663 168.775467,34.316097 
	C171.950287,38.297489 174.368301,41.329800 176.951111,44.660622 
	C172.943771,43.281704 171.037994,44.853790 170.437836,49.170620 
	C169.661713,54.753174 168.388138,60.265022 167.534760,65.838852 
	C166.809921,70.573128 164.339966,72.497192 159.608185,71.569557 
	C155.538620,70.771751 151.369461,70.347824 147.408081,69.195587 
	C145.728088,68.706932 144.466599,66.779442 143.054794,65.222702 
z"/>
<path fill="#47704C" opacity="1.000000" stroke="none" 
	d="
M112.115021,239.248093 
	C117.375725,239.903214 122.692871,241.030014 128.051270,241.903900 
	C131.705261,242.499817 132.447479,239.742325 132.933029,237.014648 
	C134.404999,228.745728 135.828857,220.468231 137.271454,212.194092 
	C137.743805,211.934464 138.216156,211.674835 138.688507,211.415222 
	C140.104904,213.036758 141.521286,214.658310 143.018890,216.612244 
	C141.996857,219.092392 140.414810,221.129120 139.885620,223.410080 
	C138.613953,228.891449 137.808060,234.482635 136.867966,240.038589 
	C136.123444,244.438766 133.467468,246.364395 129.159225,245.874664 
	C125.048256,245.407379 120.860115,245.047562 116.919701,243.903839 
	C115.082375,243.370544 113.750198,241.096832 112.115021,239.248093 
z"/>
<path fill="#47704C" opacity="1.000000" stroke="none" 
	d="
M248.891953,77.754700 
	C233.091858,71.443352 217.224655,64.770828 201.145569,58.009193 
	C198.670486,63.865856 196.626602,68.702202 194.341858,73.796539 
	C196.024017,68.359100 197.704681,62.558189 200.094879,57.066071 
	C200.522018,56.084599 204.205215,55.571400 205.844208,56.216316 
	C218.867569,61.340874 231.810989,66.681419 244.634964,72.285202 
	C246.432434,73.070663 247.447571,75.646454 248.891953,77.754700 
z"/>
<path fill="#47704C" opacity="1.000000" stroke="none" 
	d="
M42.957851,101.235153 
	C47.779736,101.807205 52.497318,102.531982 57.139244,103.589020 
	C60.680721,104.395477 62.418179,103.233246 63.000881,99.679672 
	C63.878471,94.327721 64.896057,88.995522 66.009392,83.687492 
	C66.319580,82.208626 67.176888,80.844521 67.783203,79.427765 
	C69.110138,80.398399 70.437080,81.369034 71.930313,82.640495 
	C70.676979,87.956581 68.931534,92.906372 67.907745,98.001167 
	C65.970825,107.640022 64.678833,108.737900 54.992558,107.147003 
	C51.250969,106.532486 47.528515,105.801476 43.398674,105.061768 
	C42.776550,104.779007 42.553921,104.557190 42.166054,104.167282 
	C42.273670,103.176933 42.547340,102.353874 42.957851,101.235153 
z"/>
<path fill="#47704C" opacity="1.000000" stroke="none" 
	d="
M114.041443,29.238060 
	C116.632477,32.784393 119.546730,36.434628 121.590027,40.520428 
	C123.556435,44.452488 125.742638,43.931145 128.665207,42.118755 
	C132.736008,39.594296 136.817993,37.083942 140.963669,34.685921 
	C142.756348,33.648972 144.720093,32.907734 148.067322,31.353832 
	C147.441025,35.609875 147.010574,38.535072 146.341003,41.756996 
	C144.341660,39.554379 142.226349,39.348637 139.683838,40.901894 
	C136.446976,42.879360 133.178207,44.812675 129.848282,46.627621 
	C126.385811,48.514816 123.317200,47.860138 121.413475,44.353016 
	C118.778526,39.498802 116.445885,34.480484 114.041443,29.238060 
z"/>
<path fill="#47704C" opacity="1.000000" stroke="none" 
	d="
M84.041565,205.239258 
	C86.137474,208.135941 88.491325,211.175201 90.132637,214.559998 
	C92.090385,218.597382 93.992531,219.649780 98.014160,216.752686 
	C102.300903,213.664627 107.091721,211.257111 111.757469,208.727722 
	C112.941917,208.085632 114.487099,208.108963 115.866531,207.826538 
	C115.965050,209.339081 116.063576,210.851608 115.997726,212.681107 
	C110.701950,215.561584 105.488716,217.975693 100.461197,220.728912 
	C94.969116,223.736542 92.514008,223.381042 89.601875,217.956375 
	C87.457458,213.961777 85.837608,209.685577 84.041565,205.239258 
z"/>
<path fill="#47704C" opacity="1.000000" stroke="none" 
	d="
M194.126389,77.231079 
	C202.232758,80.213715 210.424881,83.543800 219.707565,87.317192 
	C210.022552,92.829315 201.350815,97.764740 192.389526,102.877838 
	C192.851868,101.442963 193.177032,99.221321 194.439178,98.337074 
	C197.660233,96.080383 201.384827,94.557205 204.734665,92.463303 
	C206.394104,91.426025 207.671570,89.777672 209.121857,88.405792 
	C207.503006,87.167763 205.992142,85.739143 204.235718,84.743927 
	C202.383209,83.694283 200.085617,83.358383 198.372314,82.155441 
	C196.725998,80.999535 195.578720,79.132881 194.126389,77.231079 
z"/>
<path fill="#47704C" opacity="1.000000" stroke="none" 
	d="
M199.481369,119.950172 
	C202.771011,118.402328 206.247055,117.500977 209.422852,115.974815 
	C215.294189,113.153290 220.989639,109.965752 227.557571,106.510178 
	C227.557571,110.409660 227.557571,112.974640 227.329712,115.796677 
	C225.477432,113.705849 223.514969,113.482285 221.076263,114.865730 
	C216.453293,117.488266 211.814285,120.093758 207.076553,122.498718 
	C204.051163,124.034477 200.937027,124.855698 199.481369,119.950172 
z"/>
<path fill="#47704C" opacity="1.000000" stroke="none" 
	d="
M177.389404,263.041626 
	C179.562805,265.271942 181.676407,267.840820 183.789993,270.409668 
	C183.564896,270.890594 183.339783,271.371552 183.114685,271.852478 
	C176.382324,271.392639 169.633438,271.092804 162.925140,270.399902 
	C159.933243,270.090881 157.264160,269.494385 156.347061,273.779053 
	C155.312057,267.565796 156.935684,265.959259 163.418213,266.538574 
	C166.555695,266.818939 169.779617,267.232574 172.844559,266.777893 
	C174.471771,266.536530 175.842896,264.568695 177.389404,263.041626 
z"/>
<path fill="#47704C" opacity="1.000000" stroke="none" 
	d="
M185.502045,55.909664 
	C188.662582,53.502869 191.889832,51.501102 195.042831,49.388493 
	C195.986572,48.756157 196.590240,47.542633 197.576981,47.060829 
	C201.938171,44.931328 202.189682,42.134644 199.068237,38.343452 
	C206.078964,41.468212 206.805908,45.624538 201.084671,50.537846 
	C198.190857,53.023026 195.363388,55.596115 192.351181,57.929726 
	C189.548630,60.100910 186.878342,60.640816 185.502045,55.909664 
z"/>
<path fill="#47704C" opacity="1.000000" stroke="none" 
	d="
M169.502106,145.909698 
	C172.083099,144.085175 174.762238,142.718689 177.299118,141.125656 
	C178.815201,140.173630 180.024261,138.740448 181.518372,137.744019 
	C185.265045,135.245346 186.744858,132.431046 183.045593,128.335968 
	C190.220779,131.525162 190.951721,136.138855 184.936203,141.045746 
	C181.970993,143.464462 179.097122,146.013748 175.987289,148.230942 
	C173.229050,150.197464 170.653381,150.324997 169.502106,145.909698 
z"/>
<path fill="#47704C" opacity="1.000000" stroke="none" 
	d="
M126.883118,269.729553 
	C117.747574,263.234436 105.358192,265.106171 100.904335,271.724823 
	C99.097916,274.409210 97.998688,277.569489 96.339333,280.783875 
	C94.910736,273.403290 98.889397,268.536438 104.896935,264.786560 
	C111.088898,260.921570 117.437714,260.833282 123.584404,264.643433 
	C125.068237,265.563232 125.760185,267.760468 126.883118,269.729553 
z"/>
<path fill="#47704C" opacity="1.000000" stroke="none" 
	d="
M235.468033,172.753998 
	C236.597458,173.870300 237.251587,174.956543 238.743576,177.434143 
	C231.567703,176.293549 225.674866,175.301239 219.763443,174.435776 
	C215.424423,173.800522 211.061066,173.331558 206.374908,172.951996 
	C206.598709,169.238327 208.991974,168.404938 212.494156,169.014511 
	C219.982056,170.317810 227.491882,171.495056 235.468033,172.753998 
z"/>
<path fill="#47704C" opacity="1.000000" stroke="none" 
	d="
M88.168701,102.180183 
	C92.255577,98.183533 96.617760,94.633034 100.599861,90.697891 
	C101.707245,89.603561 101.688789,87.369949 102.035416,85.349884 
	C107.117790,87.780289 107.781059,90.704231 103.818321,94.549072 
	C100.841530,97.437294 97.687981,100.153336 94.500038,102.810356 
	C92.442352,104.525352 90.196449,105.712509 88.168701,102.180183 
z"/>
<path fill="#47704C" opacity="1.000000" stroke="none" 
	d="
M153.889618,92.749680 
	C148.739410,90.048882 143.821243,90.222816 138.564377,93.533104 
	C132.832626,97.142410 126.668549,100.065147 120.309998,103.362213 
	C121.199554,102.016037 122.246635,100.254608 123.785324,99.235214 
	C129.130539,95.693962 134.630295,92.384018 140.101562,89.035530 
	C146.146866,85.335701 151.516815,86.668686 153.889618,92.749680 
z"/>
<path fill="#47704C" opacity="1.000000" stroke="none" 
	d="
M192.009155,106.251968 
	C194.466080,110.307724 196.832825,114.671516 199.248627,119.398491 
	C194.932693,116.426094 192.070831,112.250381 192.009155,106.251968 
z"/>
<path fill="#47704C" opacity="1.000000" stroke="none" 
	d="
M168.387451,250.081635 
	C171.288956,253.826218 174.243423,257.933258 177.251175,262.393219 
	C174.349792,258.645447 171.395111,254.544769 168.387451,250.081635 
z"/>
<path fill="#47704C" opacity="1.000000" stroke="none" 
	d="
M92.775070,194.972946 
	C89.941208,197.288284 86.783127,199.520416 83.333466,201.933685 
	C84.355583,196.900909 86.843079,194.990784 92.775070,194.972946 
z"/>
<path fill="#47704C" opacity="1.000000" stroke="none" 
	d="
M105.490700,110.406487 
	C103.122025,112.500511 100.387398,114.641113 97.346985,116.948639 
	C99.735718,114.894722 102.430237,112.673897 105.490700,110.406487 
z"/>
<path fill="#47704C" opacity="1.000000" stroke="none" 
	d="
M171.800949,240.000916 
	C170.614639,241.604034 169.129837,243.152054 167.372559,244.877747 
	C166.289948,241.389877 167.896637,239.806625 171.800949,240.000916 
z"/>
<path fill="#47704C" opacity="1.000000" stroke="none" 
	d="
M96.005585,287.259827 
	C97.340744,289.432678 98.582138,291.921356 99.995468,294.724915 
	C96.521347,293.821747 95.257812,291.245331 96.005585,287.259827 
z"/>
<path fill="#47704C" opacity="1.000000" stroke="none" 
	d="
M119.219818,103.631805 
	C117.908714,104.653786 116.292969,105.534866 114.317505,106.460114 
	C115.610245,105.499817 117.262703,104.495369 119.219818,103.631805 
z"/>
<path fill="#47704C" opacity="1.000000" stroke="none" 
	d="
M167.891968,109.762283 
	C166.706619,108.617615 165.454071,107.119278 164.042725,105.330811 
	C165.197556,106.496666 166.511154,107.952644 167.891968,109.762283 
z"/>
<path fill="#47704C" opacity="1.000000" stroke="none" 
	d="
M180.884506,15.735262 
	C179.700668,14.598363 178.450592,13.108923 177.042236,11.330080 
	C178.195389,12.488026 179.506821,13.935373 180.884506,15.735262 
z"/>
<path fill="#47704C" opacity="1.000000" stroke="none" 
	d="
M184.892517,20.763182 
	C183.712585,19.620432 182.465988,18.124901 181.065186,16.337456 
	C182.215942,17.500492 183.520889,18.955446 184.892517,20.763182 
z"/>
<path fill="#47704C" opacity="1.000000" stroke="none" 
	d="
M189.884506,26.735260 
	C188.700684,25.598360 187.450607,24.108921 186.042236,22.330082 
	C187.195389,23.488029 188.506821,24.935375 189.884506,26.735260 
z"/>
<path fill="#47704C" opacity="1.000000" stroke="none" 
	d="
M193.892517,31.763186 
	C192.712570,30.620440 191.465973,29.124910 190.065186,27.337460 
	C191.215942,28.500494 192.520905,29.955448 193.892517,31.763186 
z"/>
<path fill="#47704C" opacity="1.000000" stroke="none" 
	d="
M198.884521,37.735275 
	C197.700684,36.598381 196.450607,35.108944 195.042252,33.330101 
	C196.195404,34.488041 197.506836,35.935387 198.884521,37.735275 
z"/>
<path fill="#47704C" opacity="1.000000" stroke="none" 
	d="
M178.107483,46.236816 
	C179.287415,47.379562 180.534012,48.875092 181.934814,50.662537 
	C180.784058,49.499496 179.479111,48.044544 178.107483,46.236816 
z"/>
<path fill="#47704C" opacity="1.000000" stroke="none" 
	d="
M92.891968,74.762283 
	C91.706619,73.617607 90.454079,72.119278 89.042740,70.330811 
	C90.197563,71.496666 91.511162,72.952644 92.891968,74.762283 
z"/>
<path fill="#47704C" opacity="1.000000" stroke="none" 
	d="
M99.891968,82.762283 
	C98.706619,81.617615 97.454071,80.119278 96.042740,78.330811 
	C97.197563,79.496658 98.511169,80.952644 99.891968,82.762283 
z"/>
<path fill="#47704C" opacity="1.000000" stroke="none" 
	d="
M162.107483,136.236816 
	C163.287415,137.379562 164.534012,138.875092 165.934814,140.662537 
	C164.784058,139.499496 163.479111,138.044540 162.107483,136.236816 
z"/>
<path fill="#47704C" opacity="1.000000" stroke="none" 
	d="
M162.892487,103.763168 
	C161.712570,102.620430 160.465988,101.124908 159.065186,99.337479 
	C160.215927,100.500511 161.520874,101.955452 162.892487,103.763168 
z"/>
<path fill="#47704C" opacity="1.000000" stroke="none" 
	d="
M172.891968,115.762291 
	C171.706619,114.617615 170.454071,113.119286 169.042725,111.330818 
	C170.197556,112.496666 171.511154,113.952644 172.891968,115.762291 
z"/>
<path fill="#47704C" opacity="1.000000" stroke="none" 
	d="
M158.884521,98.735268 
	C157.700684,97.598373 156.450623,96.108925 155.042236,94.330078 
	C156.195389,95.488029 157.506836,96.935379 158.884521,98.735268 
z"/>
<path fill="#47704C" opacity="1.000000" stroke="none" 
	d="
M177.884521,121.735268 
	C176.700684,120.598373 175.450623,119.108925 174.042236,117.330078 
	C175.195389,118.488029 176.506851,119.935371 177.884521,121.735268 
z"/>
<path fill="#47704C" opacity="1.000000" stroke="none" 
	d="
M181.892487,126.763168 
	C180.712570,125.620422 179.465988,124.124908 178.065186,122.337471 
	C179.215927,123.500504 180.520874,124.955452 181.892487,126.763168 
z"/>
<path fill="#47704C" opacity="1.000000" stroke="none" 
	d="
M166.111954,141.258286 
	C167.104431,142.304245 168.159515,143.696167 169.255798,145.428467 
	C168.256195,144.380646 167.215378,142.992447 166.111954,141.258286 
z"/>
<path fill="#47704C" opacity="1.000000" stroke="none" 
	d="
M21.052725,256.215271 
	C21.996977,257.091980 22.894833,258.240265 23.940872,259.670959 
	C23.061481,258.797821 22.033903,257.642365 21.052725,256.215271 
z"/>
<path fill="#47704C" opacity="1.000000" stroke="none" 
	d="
M182.111954,51.258278 
	C183.104431,52.304245 184.159500,53.696186 185.255783,55.428490 
	C184.256180,54.380657 183.215363,52.992458 182.111954,51.258278 
z"/>
<path fill="#47704C" opacity="1.000000" stroke="none" 
	d="
M112.455704,106.400406 
	C111.778397,107.314957 110.736656,108.328873 109.296921,109.397728 
	C109.963036,108.468369 111.027153,107.484070 112.455704,106.400406 
z"/>
<path fill="#47704C" opacity="1.000000" stroke="none" 
	d="
M112.666794,232.187897 
	C112.737617,232.866776 112.641823,233.720963 112.323616,234.814728 
	C112.234200,234.157272 112.367195,233.260223 112.666794,232.187897 
z"/>
<path fill="#47704C" opacity="1.000000" stroke="none" 
	d="
M43.666801,93.187881 
	C43.737629,93.866768 43.641838,94.720947 43.323639,95.814713 
	C43.234215,95.157265 43.367199,94.260223 43.666801,93.187881 
z"/>
<path fill="#47704C" opacity="1.000000" stroke="none" 
	d="
M44.666801,87.187881 
	C44.737625,87.866768 44.641834,88.720947 44.323639,89.814713 
	C44.234215,89.157265 44.367199,88.260223 44.666801,87.187881 
z"/>
<path fill="#47704C" opacity="1.000000" stroke="none" 
	d="
M45.666801,82.187881 
	C45.737629,82.866768 45.641834,83.720947 45.323639,84.814713 
	C45.234219,84.157265 45.367203,83.260223 45.666801,82.187881 
z"/>
<path fill="#47704C" opacity="1.000000" stroke="none" 
	d="
M46.666801,76.187881 
	C46.737629,76.866768 46.641838,77.720947 46.323639,78.814713 
	C46.234215,78.157265 46.367199,77.260223 46.666801,76.187881 
z"/>
<path fill="#47704C" opacity="1.000000" stroke="none" 
	d="
M47.666801,71.187881 
	C47.737625,71.866768 47.641834,72.720947 47.323639,73.814713 
	C47.234215,73.157265 47.367199,72.260223 47.666801,71.187881 
z"/>
<path fill="#47704C" opacity="1.000000" stroke="none" 
	d="
M226.666809,119.187881 
	C226.737625,119.866776 226.641830,120.720955 226.323624,121.814728 
	C226.234207,121.157272 226.367203,120.260231 226.666809,119.187881 
z"/>
<path fill="#47704C" opacity="1.000000" stroke="none" 
	d="
M167.046692,247.182953 
	C167.480164,247.675446 167.860825,248.406784 168.271759,249.458038 
	C167.865967,248.992569 167.429916,248.207184 167.046692,247.182953 
z"/>
<path fill="#47704C" opacity="1.000000" stroke="none" 
	d="
M145.666809,45.187904 
	C145.737640,45.866795 145.641846,46.720966 145.323639,47.814724 
	C145.234207,47.157269 145.367188,46.260231 145.666809,45.187904 
z"/>
<path fill="#47704C" opacity="1.000000" stroke="none" 
	d="
M21.666796,238.187897 
	C21.737617,238.866776 21.641819,239.720963 21.323612,240.814728 
	C21.234196,240.157272 21.367186,239.260239 21.666796,238.187897 
z"/>
<path fill="#47704C" opacity="1.000000" stroke="none" 
	d="
M225.666794,125.187881 
	C225.737625,125.866776 225.641830,126.720955 225.323608,127.814743 
	C225.234192,127.157280 225.367172,126.260231 225.666794,125.187881 
z"/>
<path fill="#47704C" opacity="1.000000" stroke="none" 
	d="
M48.666801,65.187881 
	C48.737629,65.866768 48.641834,66.720947 48.323639,67.814713 
	C48.234215,67.157265 48.367199,66.260223 48.666801,65.187881 
z"/>
<path fill="#47704C" opacity="1.000000" stroke="none" 
	d="
M144.666809,50.187908 
	C144.737625,50.866791 144.641830,51.720966 144.323639,52.814728 
	C144.234222,52.157272 144.367218,51.260235 144.666809,50.187908 
z"/>
<path fill="#47704C" opacity="1.000000" stroke="none" 
	d="
M113.666801,227.187897 
	C113.737617,227.866776 113.641823,228.720963 113.323624,229.814728 
	C113.234200,229.157272 113.367195,228.260223 113.666801,227.187897 
z"/>
<path fill="#47704C" opacity="1.000000" stroke="none" 
	d="
M23.666798,209.187897 
	C23.737619,209.866776 23.641823,210.720963 23.323616,211.814728 
	C23.234198,211.157272 23.367188,210.260239 23.666798,209.187897 
z"/>
<path fill="#47704C" opacity="1.000000" stroke="none" 
	d="
M22.666796,223.187897 
	C22.737617,223.866776 22.641821,224.720963 22.323612,225.814728 
	C22.234194,225.157272 22.367184,224.260239 22.666796,223.187897 
z"/>
<path fill="#47704C" opacity="1.000000" stroke="none" 
	d="
M114.666801,221.187897 
	C114.737625,221.866776 114.641823,222.720963 114.323624,223.814728 
	C114.234200,223.157272 114.367188,222.260223 114.666801,221.187897 
z"/>
<path fill="#47704C" opacity="1.000000" stroke="none" 
	d="
M115.666794,215.187897 
	C115.737610,215.866776 115.641815,216.720963 115.323608,217.814728 
	C115.234200,217.157272 115.367188,216.260223 115.666794,215.187897 
z"/>
<path fill="#47704C" opacity="1.000000" stroke="none" 
	d="
M50.666801,54.187912 
	C50.737625,54.866791 50.641834,55.720963 50.323631,56.814720 
	C50.234211,56.157269 50.367195,55.260235 50.666801,54.187912 
z"/>
<path fill="#47704C" opacity="1.000000" stroke="none" 
	d="
M143.666809,56.187904 
	C143.737625,56.866791 143.641830,57.720966 143.323639,58.814724 
	C143.234207,58.157269 143.367188,57.260231 143.666809,56.187904 
z"/>
<path fill="#47704C" opacity="1.000000" stroke="none" 
	d="
M49.666801,59.187912 
	C49.737625,59.866791 49.641834,60.720963 49.323631,61.814720 
	C49.234211,61.157269 49.367195,60.260235 49.666801,59.187912 
z"/>
</svg>